<?xml version="1.0" encoding="utf-8"?>
<!-- Generator: Adobe Illustrator 27.9.0, SVG Export Plug-In . SVG Version: 6.00 Build 0)  -->
<svg version="1.1" id="Layer_1" xmlns="http://www.w3.org/2000/svg" xmlns:xlink="http://www.w3.org/1999/xlink" x="0px" y="0px"
	 viewBox="0 0 32 32" style="enable-background:new 0 0 32 32;" xml:space="preserve">
<g>
	<path d="M16,13.7c3.4-3.5,12,2.6,0,10.4C4,16.3,12.6,10.2,16,13.7"/>
	<path d="M17.5,2.4c-0.8-0.8-2.1-0.8-2.9,0L0.8,16.1c-0.4,0.4-0.4,1.1,0,1.5s1.1,0.4,1.5,0l1.3-1.3v10.9c0,1.7,1.4,3.1,3.1,3.1h18.6
		c1.7,0,3.1-1.4,3.1-3.1V16.2l1.3,1.3c0.4,0.4,1.1,0.4,1.5,0c0.4-0.4,0.4-1.1,0-1.5l-4.9-4.9V4.4c0-0.6-0.5-1-1-1h-2.1
		c-0.6,0-1,0.5-1,1v2.7L17.5,2.4z M26.3,14.1v13c0,0.6-0.5,1-1,1H6.7c-0.6,0-1-0.5-1-1v-13L16,3.8L26.3,14.1z"/>
</g>
</svg>
