<?xml version="1.0" encoding="utf-8"?>
<!-- Generator: Adobe Illustrator 27.9.0, SVG Export Plug-In . SVG Version: 6.00 Build 0)  -->
<svg version="1.1" id="Layer_1" xmlns="http://www.w3.org/2000/svg" xmlns:xlink="http://www.w3.org/1999/xlink" x="0px" y="0px"
	 viewBox="0 0 982.8 265" style="enable-background:new 0 0 982.8 265;" xml:space="preserve">
<style type="text/css">
	.st0{fill:#FFFFFF;}
</style>
<path class="st0" d="M692,54.4c-5.3-6.2-9.3-11.8-12.2-16.1c-3.5-5.3-5.2-8.6-5.9-12.9c-0.6-3.5-0.4-6.6-0.1-8.6
	c0.8-0.7,2.3-1.8,4.4-2c2.6-0.3,4.6,1,5.4,1.5c5.7,3.6,10.3,16.8,13.2,24.5c10,27.2,7.9,15.4,10.4,23.8c0.7,2.2,1.8,6.5,5,7.8
	c1.3,0.5,1.5,0.2,9.3-0.8c4.6-0.6,5.5-0.6,7.4-1.3c1.7-0.7,3.8-1.5,5.6-3.5c2.4-2.8,2.8-6.4,3.1-9.8c0.2-1.7,0.1-2.9,0.1-3.2
	c-0.2-4.8-1.9-7.3-4.1-12.6c-0.3-0.7-2.3-5.8-3.5-11.9c0.8-3.8,0.8-6.8,0.6-9c-0.2-2.7-0.8-4.6,0.3-5.6c1-0.9,3-0.6,4.3,0
	c2,1,2.8,3.2,3.2,4.6c0.9,2.9,0.3,4.3,0.2,12.5c0,1.5,0,2.2,0,2.5c0.3,5.2,2.6,9.2,3.6,11.4c1.1,2.3,3.2,5.3,3.3,8.2
	c0.1,1.4-0.2,2.1-1.1,5.9c-2.2,9.3-1.9,9-2.4,9.9c-0.4,0.8-3.1,5.5-9.1,7.9c-1.2,0.5-3.2,1.1-5.8,1.3c0,0,11.5,19.4,16.9,25.8
	c0.2,0.3,3.3,3.9,3.3,3.9c3.5,2.9,4.6,3.4,6.2,5.1c1.2,1.3,2.7,3.3,3.9,6.4c0.8,0.8,1.7,1.9,2.4,3.6c1,2.6,0.5,5.4-1,10.8
	c-1,3.6-2.7,7.1-5,10.2c-8.4,11.5-6.8,23.8-3.6,36.2c0.4,1.5,3.2,8.9,3.2,8.9l0,0c-0.8,0.5-2.1,1.1-3.4,0.9c-3.7-0.5-5.5-6.2-8-13.6
	c-6.6-19.5-6.7-17.6-6.9-19.5c-1.1-10.1,6.4-13.6,7.9-27.8c0.4-3.8,0.3-7,0.1-9.2c-6.8-12.1-14.3-24.3-22.8-36.4
	c-0.9-1.3-1.8-2.6-2.7-3.9c-5.3,3.3-8.8,6.9-10.5,11.2c-1,2.4-0.1,3.1,1.1,19.1c0,0,0.3,4,0,9.8c-0.2,3.8-0.5,4.6-0.7,5.1
	c-0.7,1.8-1.7,2.6-8,7.2c-5.7,4.1-6.8,4.9-8.5,5.9c-3.3,1.9-3.2,1.2-4.7,2.6c-2.9,2.5-7.5,10.4-7.5,10.4c-2.3,3.9-2.2,3.5-3.1,5.2
	c-1.5,2.7-2.7,5.1-3.7,7.1c-0.4,0.5-2.6,3.4-5.1,3c-3-0.5-4.4-5.5-4.2-9.1c0.1-2.1,1-4.2,2.9-6.4c3.5-4.1,8.3-7.1,12.6-10.6
	c1.3-1.1,1.6-1.1,3.3-2.2c10.8-7.1,16.2-10.7,17.7-14.7c1.4-3.5-0.4-4.2-1-13c-0.7-9.7,1.3-10.1,1.3-20.5c0-11.7-3.5-24-4-25.6
	C694.9,62.3,693.7,58.6,692,54.4L692,54.4z"/>
<path class="st0" d="M73.6,184.5c7.2-14.3,10.7-29.6,8.3-45.6c-0.7-4.9-4.4-9.4-5.4-14.4c-2-9.7-2.6-19.7-4.7-29.4
	c-1.9-9.3,0.4-15,9.4-19.2c7.7-3.6,14.4-9.2,22-14.2c0.4,1.2,0.9,1.9,0.8,2.3c-2.7,7.3-2.9,15.6-10.8,20.3
	c-7.6,4.6-13.2,11.4-14.9,20.3c-0.8,4.2-0.9,9,0.3,13.1c2.3,7.7,5.2,15,10,22c9.2,13.3,9.8,28.7,5.7,43.9
	c-2.6,9.4-6.6,18.4-9.8,27.7c-1.7,4.9-2.9,9.8-4.8,16.2c-2.8-6.5-5.1-11.8-7.3-17.2c-4.6-11.1-12.5-19.8-20.7-28.4
	c-2.8-3-4.6-7.2-6.2-11.1c-3.4-8-4.3-16.3-2.4-24.9c0.9-4.1,1.5-8.2,2-12.3c0.8-6.7,0-8.4-5.7-13c-7.9,4.9-12.7,12.3-15.3,21.1
	c-2.9,10-6.3,20-8.5,30.2c-1.6,7.8-2.2,15.8-2.2,23.8c-0.1,16.8,0.6,33.6,0.6,50.4c0,5.9-0.9,11.8-1.4,18.8
	c-7.7-6.2-11.3-12.7-11.4-21.2c-0.2-15.6-0.8-31.2-1-46.8c-0.2-13.5,2.7-26.3,8.3-38.7c2.6-5.8,3.7-12.4,4.9-18.7
	c1.3-7,1.8-14.2,2.9-21.2c1.1-7.4,5.1-11.2,12.5-12.1c4-0.5,7.9-1,11.9-1.1c5.7-0.2,9.6,2.3,10.4,7.9c1,6.7,1.8,13.6,1,20.2
	c-1.7,13.5,2,25.6,7.3,37.6c0.5,1,1.4,1.8,2.2,2.6C65.4,177,69.4,180.7,73.6,184.5L73.6,184.5L73.6,184.5L73.6,184.5z"/>
<path class="st0" d="M899.7,73.9c3.5,1.2,8,3.4,9.5,7.5c2,5.8-4,9.5-9.2,22c-5.2,12.7-5.4,24.7-5.6,32.1c0,3.1,0.1,5.3,0.5,9.6
	c0.8,9.9,1.9,11.7,3,12.8c1,1.1,2.2,1.7,2.7,3.4c0.5,1.4,0.3,3.1-0.3,5.4c-0.6,2.4-1.7,10.4-3.4,26.7c-0.5,4.3-0.8,7.2-0.8,11.4
	c-0.1,5.5,0.3,10,0.7,13.2c0.1,0.7,0.2,1.4,0.3,2.2c0.1,1.4,0.2,2.8,0.1,4c0,0.1-0.5,2.3-2.5,3c-1.6,0.6-3.5,0.1-4.7-1.4
	c-3.2-0.8-6.6-1.7-10.2-2.9c-4.3-1.4-8.2-2.9-11.8-4.5c-6.3-2.2-11.2-4.8-14.7-6.9c-8-4.9-11.1-8.8-11.8-9.8c-0.9-1.2-2.3-3-3.4-5.6
	c-2.4-5.6-1.8-10.9-1.5-13.4c1.2-9.7,5.6-39.8,4.2-46.7c-0.4-2-1.1-3.9-1.1-3.9c-0.6-1.7-1.3-3.1-1.8-4c-0.4-0.7-0.7-1.1-0.7-1.3
	c-1.7-2.8-0.2-8-0.2-11.8c0-1.8-0.5-1.9-0.4-3.2c0,0,0.1-1.4,1.6-5.6c0,0-0.5-3.3-0.8-5.3c-0.5-4-0.8-6.3-0.6-9.2
	c0.2-1.9,0.5-3.2,1.1-5.7c1.2-4.9,2.6-8.6,3.2-10.1c3.3-8.8,8-18,9.3-20.7c4.9,2.4,6.8,5.2,7.8,7.3c3.6,8.2-4.7,15.7-8.1,35.9
	c-0.3,1.8-1.6,4-1.2,8.7c0.4,5.9-0.2,11.8-1.7,17.7c-0.7,2.6-0.6,6.2,0.7,8.5c5.5,10.1,4.1,20.6,2.9,31.1c-0.6,4.7-2.2,9.4-2.6,14.1
	c-0.7,8.8,0.8,17.2,6.5,24.2c1.4,1.7,4.2,3.1,6.3,3c8.7-0.6,16.4,0.8,22.4,8c1.1,1.4,3.2,2,4.8,2.9c0.6-0.2,1.2-0.3,1.8-0.5
	c-0.7-10.4-1.3-18.8-1.8-24.5c-2.8-34.7-4.2-52-4.6-53.2c-1.6-4.8-4.9-13.6-1.2-21.6c1-2.2,1.8-2.8,4.2-7.2c3-5.6,6.1-14.4,6.1-14.4
	C894.7,88.8,897.1,81.8,899.7,73.9L899.7,73.9z"/>
<path class="st0" d="M607.5,21.2c1.6-1.3,3.3-4.2,6.1-1.1c0.4,0.4,2.3-1.1,3.6-1.4c0.7-0.2,1.6,0.3,2.3,0.4c-0.2,1-0.2,2.5-0.8,2.9
	c-5,4-10.2,7.9-15.4,11.8c-0.9,0.7-1.7,0.9-2.3,0.8c-1.7-0.2-2.2-2-3.5-3.1c-2.2-1.8-4.3,0.5-8.2,0.5c-3,0-5.1-1.6-9.4-4.7
	c-4.5-3.2-4.4-4.6-7.8-6.3c-2.3-1.1-4.3-1.4-8.3-1.8c-5.9-0.7-8.8-1-11.9,0.7c-1.2,0.7-4.4,2.5-6,6.3c-2.2,5.3,0.7,9.5,2.3,19.8
	c2.2,14.1-1.2,18.9,2,22c4,3.9,9.3-3.5,18.3,0.4c2.9,1.2,4.3,2.9,7.5,2.8c2.9-0.1,5.8-1.6,8.9-4.3c3.1,6.5,6.2,12.9,9.4,19.4
	c0.2,0.4,0.3,0.8,0.6,1.3c2.8,5.4,9.2,10.6,15.5,10c2.4-0.3,3.8-1.3,4.4-0.6c1,1.2-1.7,5.9-3.1,5.7c-0.1,0-0.3-0.1-0.5-0.2
	c-0.9-0.5-5.2-1.5-6.8-1.2c-3,0.7-5.5-0.2-7.8-0.9c-7.1-2.3-11.9-10.8-13.5-15.6c-0.2-0.7-0.7-2-1.8-3.5c-1.6-2.2-3.8-3.2-6.5-3.9
	c-8-2.3-26.9,6.9-28.5,17.7c-0.5,3.2-0.8,7.2,0.5,9.7c4.9,9.3,10.5,11.2,13,21.1c1.5,5.9-0.6,7.4,1.8,10.8c2.3,3.3,5.5,3.5,16,6.7
	c10.6,3.3,8.4,3.4,14.1,4.8c10,2.5,17,2.1,19.2,6.2c0.2,0.4,0.8,2.2,0.6,3.5c-0.1,0.5-1.8,1-2.6,0.9c-6.1-0.8-29.3-7.3-33.9-7.7
	c-3.7-0.3-3.1-1.8-7.7-2.9c-5.7-1.3-10.6,0-12.8,0.6c-2,0.6-4.8,1.6-7.9,3.6c0.4-3.3,0.4-5.6,0.9-7.9c2.5-11.9-0.3-22.9-4.5-33.4
	c-4.3-10.7-6.3-21.5-5.3-33.4c0.8-9.4-0.1-17.7,1.1-34.4c1.6-23.5,3.4-27.4,5.8-30.1c4.5-5.1,11-5.5,15.5-5.8
	c6.6-0.4,11.7,1.6,13.9,2.5c7.1,2.9,11.7,6.3,11.7,6.3c3.1,2.3,5,4.3,8,4.1c2.3-0.2,3.1-1.5,5.6-1.9
	C602.8,17.9,605.6,19.6,607.5,21.2L607.5,21.2L607.5,21.2z"/>
<path class="st0" d="M110.6,220c-0.4-6.7,8.8-12.6,11-18.4c3.8-9.9,7.4-19.8,11.9-29.5c4.8-10.4,11.4-20.1,20.5-28.3
	c2.4-2.2,0.7-5.9,0.7-5.9c0-5.3-1.6-9.1-2.4-11.4c-1-2.6-0.3,0-4.2-24.9c-0.6-4.1-1.1-7-3.2-10.6c-2.3-3.8-5.1-6-7.1-7.7
	c-12.1-9.8-22.3-17.9-20.2-22.2c0.5-1.1,2-2.5,6.4-3.3c4.3,3.1,9.3,7.2,14.3,12.7c6.3,7,10.2,13.8,12.7,19
	c-0.4,3.6-0.4,8.4,0.6,13.8c1.5,7.4,4.4,13.2,6.8,17c14.1-12.5,15.4-23.6,15.6-27.7c0.3-8.4-2.2-18.4-4.4-21
	c-12.6-14.9-4.2-27,10.2-35c2.7-1.5,5.5-2,8.1-1.5c4.6,0.8,7,4.6,7.4,5.3c2.5,4,1.4,8,1.1,8.9c-4.5,0.7-8.1,1.5-10.6,2.2
	c-2.6,0.7-4.2,1.2-5.8,2c-2.6,1.2-4.9,2.2-6.3,4.3c-1,1.5-1.2,3-1.2,4.6c0.2,9.1,9.1,14.9,9.6,25.5c0.1,2.3-0.2,4.4-0.5,5.9
	c-1,5.9-3.2,10-4.5,12.5c-7.6,14.3-11.4,21.6-12.2,24.9c-2,9.2-2.3,12.7-2.3,12.7c0,2-0.3,3.7-0.9,5.4c-1.5,4.4-4.3,7.3-5.3,8.3
	c-7.1,7.2-14.9,21.2-18.7,30.3c-2.8,6.9-4.6,14.1-5.2,16.8c-1.2,4.8-1.2,6.8-1.9,9.6c-0.4,1.7-0.9,3-1.2,3.8
	c-0.3,0.7-0.9,2.5-2.5,5.6C125.2,227.3,110.7,221.5,110.6,220L110.6,220L110.6,220z"/>
<path class="st0" d="M263.6,23.1c15.8,7.2,21.2,18.9,20.7,33.3c-0.3,8-2.8,15.9-4.3,23.8c-0.3,1.7-1,3.8-0.3,5.2
	c6.3,12.4,3.7,25.3,2.7,38.3c-0.9,12.2-1.7,24.5,6.1,35.2c1.6,2.2,3.6,4.1,6,6.8c8.5-12.2,19.9-18.6,33.9-18.9
	c6-0.1,12.7,1.7,18,4.6c4.9,2.7,10.5,6.5,9.3,14.1c-0.8-0.9-1.7-1.6-2.5-2.6c-4.1-5-9.6-6.2-15.4-2.8c-3.7,2.2-6.8,5.3-10.4,7.5
	c-2,1.2-4.8,2-7,1.8c-4.2-0.3-8.5-1.4-12.6-2.4c-4.7-1.2-7.3,0.8-9.5,4.6c-2.8,4.9-4,4.7-8.9,2c-15.1-8.5-19.6-22.7-20.9-38.2
	c-1.2-14.3-1.3-28.7,3.4-42.5c2-5.8,3-11.3,1.1-17.4c-0.7-2.3,0.2-5.6,1.4-8c3.7-7.9,0.9-13.7-5.3-18.9c-2.7-2.2-7-4.7-7.3-7.3
	C261.2,35.7,262.8,29.8,263.6,23.1L263.6,23.1L263.6,23.1L263.6,23.1z"/>
<path class="st0" d="M496.7,130.2c-5,5.1-9.9,10.2-14.9,15.2c-4,4.1-7,3.7-8.4-2.1c-1.2-4.8-1.4-10.2-0.6-15.2
	c2.5-16,5.6-31.9,8.6-47.8c0.4-1.8,0.4-3.5,0.2-5.2c-0.5-4.6-3.4-6-5.9-11.7c-1.1-2.5-0.6-2.2-2.2-7.1c-1.4-4.3-2.9-7.5-4.5-11.2
	c-6.4-14-6.8-13.6-8-16.9c-1.6-4.6-2.8-11.7-0.9-21.6c3.6-4,5.9-4.5,7.5-4.2c3.2,0.7,4.9,5.6,10.7,37.1c3.4,18.4,4,23.4,7.2,28.8
	c0.7,1.2,2.4,3.9,3.2,8.1c0.5,2.6,0.6,5.4-0.7,12.7c-0.5,2.8-1.1,6.1-4.2,18.5c-0.2,0.9-1.2,4.7-2.7,10.7c-1.2,4.9-2.3,8.9-3,11.8
	c3.7-1.1,5.7-1.6,7.7-2.2c5.5-1.6,11-3.4,16.5-4.9c4.9-1.3,18.4,6.7,21.4,10.7c3.4,4.5,8.2,8,12.6,12.1c0-0.1-0.4,1.1-1.2,1.4
	c-5.2,1.6-10.3,3.1-15.6,4.4c-0.6,0.2-1.7-0.9-2.3-1.6c-4.5-4.5-8-7.8-9.9-10.1C505.1,137.3,501.8,133.8,496.7,130.2L496.7,130.2
	L496.7,130.2z"/>
<path class="st0" d="M775.3,184.3c-0.3-1.4-0.6-3.4-0.9-5.9c-1.4-12.3,4-23,11-56.7c2.7-13.2,6.2-26.2,9.3-39.3
	c1.2-4.9,0.7-9.5-2.8-13.5c-6.5-7.5-13-15.1-19.2-22.8c-0.8-1-0.6-2.9-0.9-4.4c0-0.1,0.2-0.3,0.2-0.4c3.5-4.9,6.9-9.7,10.9-15.4
	c2.7,5,5.7,9.5,7.6,14.4c3.1,7.9,7.4,16,7.5,24.1c0.1,6.9,4.6,11.4,5.2,17.1c0.4,3.8,0,7.7-2.9,19c-2.7,10.7-5.3,18.3-6.1,20.7
	c-1,3-13.9,44.1,0.6,55.5c2.9,2.3,8.7,4.7,17.3,10.3c1.2,0.8,3.6,2.3,6,5.1c1.9,2.2,1.5,2.6,3.6,5.2c3.7,4.8,6.3,5.4,6.8,8.5
	c0.3,1.6-0.1,3-0.6,4.2c-1.4-0.4-2.9-0.4-4.2-1.1c-4.9-2.7-9.8-5.4-14.6-8.4c-1.9-1.2-1.4-2.2-2.8-3.4c-2.8-2.4-4.3-1.6-7.4-3.7
	c-3-2.1-2.6-3.6-5.8-5.3c-0.3-0.1-1.8-0.6-4.7-1.5c-4.2-1.3-5.4-1.6-6.8-1.7c-1.7-0.2-3.1-0.1-4,0L775.3,184.3L775.3,184.3
	L775.3,184.3z"/>
<path class="st0" d="M403.7,161.4c-0.5-3.6-1.6-7.2-1.5-10.7c0.1-12.6-3.2-23.7-7.9-35c-2.9-6.9-3.9-15.4-3.9-23.2
	c-0.1-9.4,1.1-19,2.8-28.3c0.5-2.8,1.5-24-1.5-36.1c-0.8-3.2-1.2-5.9-2.2-11.2c-0.9-5.4-0.9-6.4-0.8-7.4c1.1-5.6,8.2-8.4,11.7-9.5
	c0.7,6,1.9,12.9,3.6,20.4c2.6,11.2,4.4,14.7,3.8,21c-0.8,8.5-4.5,7.5-7.4,18c-1.8,6.4-1.6,15.8-1.1,34.8c0.1,5.1,0.2,7.6,0.4,8.5
	c2.7,12.9,13.8,17.2,16.4,26.6c0.6,2.3,1.2,3.7,2.2,4.1c1.3,0.6,2.6-0.3,4-1.1c4.7-2.4,10.5-2.4,14.3-0.5c2,1,3.7,2.5,4.1,3
	c2.7,2.7,2.6,4.4,4.5,5.2c2.2,0.9,3.2-0.8,5.9-0.2c2.4,0.6,3.8,2.5,4.5,3.4c2.1,2.5,6.4,5.5,15.7,7.7c0,0.5,0,1,0,1.5
	c-1.8,0.4-3.5,0.8-5.3,1.1c-6.4,1-12.8,1.6-19,3.1c-2.7,0.7-5,0.7-7-0.2c-2.5-1.1-2.2-2.7-4.6-4.4c-3.5-2.4-4.9,0-11.2-2.1
	c-2.4-0.8-3.5-1.6-5.6-1.3c-2,0.3-3.4,1.3-4.5,2.2C409.7,154.3,406,158.5,403.7,161.4L403.7,161.4L403.7,161.4z"/>
<path class="st0" d="M360,24.9c4.2,0.2,4.7,3.1,5.6,6.1c2.2,7.6,5.7,15,6.7,22.8c1,7.5,0.3,15.6-1.1,23.1
	c-3.1,15.7-7.4,31.2-5.8,47.3c0.7,7,3.5,13.8,5.3,20.6c0.3,1.1,0.4,2.1,0.6,3.2c-1.2,0.2-2.4,0.7-3.5,0.5
	c-7.8-0.9-10.2-3.6-11.6-11.4c-0.8-4.4-2.2-8.6-3.5-12.9c-1.5-4.9-4.1-9.7-4.5-14.7c-0.3-3.9,1.5-8.4,3.5-12
	c4.8-8.9,11.1-17.1,15.2-26.3c4.6-10.3,4.1-17-4.7-25.2C355.5,40.1,355.6,32.5,360,24.9L360,24.9L360,24.9L360,24.9z"/>
<path class="st0" d="M341.5,14.6c2.4,0.9,4.4,1.7,5.9,2.4c2.6,1.2,3.5,1.8,3.8,2.8c0.1,0.4,0.2,1.2-0.7,2.7c-2.4,4.3-7.2,6-9.3,7.1
	c-1.2,0.6-2.3,0.9-3,1c-0.8-0.4-5.8-3.3-6.9-9.2c-0.5-3,0.2-5.5,0.7-6.7c0.6,0.2,1.5,0.3,2.2-0.1C335.1,13.9,337.7,11.9,341.5,14.6
	L341.5,14.6z"/>
<path class="st0" d="M913.9,97.7c0.4-0.8,1.2-2.6,3.1-3.7c1.3-0.7,2.9-1,4.7-0.7c12.5,1.6,17.2-1.4,26.1,3.2
	c1.2,0.6,4.9,2.6,8.6,6.3c1.2,1.2,1.8,1.9,6.5,8.6c6.9,9.6,7.5,10.5,9.4,12.2c1.7,1.6,2.9,2.3,4.8,4.5c2.9,3.2,4,5.5,4.5,7.1
	c0,0.1,0.5,1.4,0.8,2.9c0.5,2.6,0.5,6.5-6.1,21.4c-1.1,2.5-2,4.4-4.1,5.7c-1.4,0.8-2.4,0.9-4.9,2c-1.9,0.9-3.4,1.8-4.3,2.4
	c-1.4,6.7-0.5,13.2,4.3,18.3c11.2,12.1,12.5,24.5,11.2,26.3c0,0.1-0.6,0.8-1.5,1.8c-0.6,0.7-1.1,1.1-1.3,1.4
	c-1.3,1.4-2.1,2.9-2.4,3.6c-1,1.9-3.4,4.2-7.3,9.4c-2.7,3.5-4.4,5.5-6.9,7.3c-1.8,1.3-3.3,2-5,2.8c-14.9,7-16.6,8-19.9,8
	c-1.8,0-4.4-0.3-7.6-1.8c-1.6-0.7-4-2-6.3-4.4c-9.4-9.6-0.9-21.2-5.2-42.9c-2.4-12.1-8.9-27.5-5.8-35.6c1.6-4.3,2.9-7.8,6.5-15.7
	c1.2-2.8,2.4-8.7,2.6-16.2c0.3-9.7-3.4-12.1-4.4-24.3C913.7,103.4,913.8,99.8,913.9,97.7z M932.7,240.4c0-0.2,0-0.3-0.1-0.5
	c1.4,0.1,2.8,0.5,4.1,0.2c1.8-0.4,3.6-1.3,5.3-2.1c3.9-1.8,8.2-3,11.6-5.4c4.2-2.9,7.7-7,11.8-10.3c7.3-6.1,6.1-14.1,4.9-21.8
	c-0.8-4.9-9.6-5.3-12-10.4c-0.1-0.3-0.4-0.9-1.5-3.1c-2.1-4.3-2.2-4.4-2.7-5.6c-1.8-4.1-2.8-6.1-2.9-7.9c-0.3-3.6,0.9-5.1-0.2-6.8
	c-0.6-0.9-1.7-1.7-3.7-2.1c-0.9-0.2-1.6-1.6-2.2-2.7c-1.6-2.9-3.1-5.8-4.6-8.7c-3.1-6.1-8.2-8.6-14.2-6.7c-5.3,1.7-8.4,3.5-9.8,6.1
	c-1.2,2.2-1.1,4.4-0.9,7.4c0.9,10.9,2.4,17.1,2.4,17.1c3.5,14,5.3,21,4.8,25.9c-0.5,5.4-1.9,8.4-1.9,16.5c0,1.5,0,5.4,1.5,10.2
	c0.9,3,1.7,5.6,4.1,7.7C928.7,239.5,931.2,240.2,932.7,240.4z M956.8,164.1c2.2-0.9,3.8-1.1,4.8-2c4.9-4.3,9.7-8.7,14.4-13.3
	c4.1-4,3.2-10.5-1.7-13.4c-15.2-9.2-28.8-20.5-42-32.2c-0.7-0.6-1.7-1.5-2.5-1.4c-6.1,0.6-8.4,5.8-5.3,11.3c2.5,4.4,4.6,9,7.1,13.3
	c6.3,10.9,12.6,21.8,19.2,32.6C952.1,161.2,954.9,162.5,956.8,164.1L956.8,164.1L956.8,164.1z"/>
</svg>
