<?xml version="1.0" encoding="utf-8"?>
<!-- Generator: Adobe Illustrator 27.9.0, SVG Export Plug-In . SVG Version: 6.00 Build 0)  -->
<svg version="1.1" id="Layer_1" xmlns="http://www.w3.org/2000/svg" xmlns:xlink="http://www.w3.org/1999/xlink" x="0px" y="0px"
	 viewBox="0 0 32 32" style="enable-background:new 0 0 32 32;" xml:space="preserve">
<g>
	<path d="M4,4C1.8,4,0,5.8,0,8v16c0,2.2,1.8,4,4,4h11c0.6,0,1-0.4,1-1s-0.4-1-1-1H4c-0.9,0-1.7-0.6-1.9-1.5l11.3-6.9l2.7,1.6l14-8.4
		V17c0,0.6,0.4,1,1,1s1-0.4,1-1V8c0-2.2-1.8-4-4-4H4z M11.4,16.4L2,22.2V10.8L11.4,16.4z M2,8.4V8c0-1.1,0.9-2,2-2h24
		c1.1,0,2,0.9,2,2v0.4l-14,8.4L2,8.4z"/>
	<path d="M32,25c0,3.9-3.1,7-7,7s-7-3.1-7-7s3.1-7,7-7S32,21.1,32,25 M25,21c-0.6,0-1,0.4-1,1v2h-2c-0.6,0-1,0.4-1,1s0.4,1,1,1h2v2
		c0,0.6,0.4,1,1,1s1-0.4,1-1v-2h2c0.6,0,1-0.4,1-1s-0.4-1-1-1h-2v-2C26,21.4,25.6,21,25,21"/>
</g>
</svg>
