<?xml version="1.0" encoding="UTF-8"?><svg id="Layer_1" xmlns="http://www.w3.org/2000/svg" viewBox="0 0 990.73 267.33"><defs><style>.cls-1{stroke-width:0px;}</style></defs><path class="cls-1" d="m921.84,102.43c.38-.8,1.23-2.6,3.14-3.66,1.31-.73,2.89-.97,4.74-.74,12.55,1.55,17.25-1.36,26.11,3.22,1.19.61,4.89,2.62,8.64,6.34,1.21,1.2,1.75,1.91,6.53,8.57,6.87,9.57,7.46,10.48,9.39,12.24,1.71,1.57,2.87,2.34,4.85,4.54,2.89,3.22,3.97,5.54,4.54,7.12.02.06.5,1.4.77,2.86.49,2.61.49,6.52-6.08,21.39-1.1,2.48-2,4.43-4.08,5.71-1.36.84-2.39.89-4.9,2.04-1.9.88-3.36,1.79-4.27,2.42-1.36,6.74-.45,13.18,4.27,18.3,11.21,12.14,12.55,24.47,11.15,26.3-.03.05-.62.8-1.47,1.76-.62.7-1.05,1.13-1.27,1.37-1.31,1.39-2.06,2.89-2.44,3.58-1.03,1.89-3.36,4.23-7.33,9.45-2.68,3.53-4.42,5.47-6.89,7.26-1.79,1.3-3.29,2.03-4.98,2.83-9.02,4.25-13.53,6.37-19.89,7.99-2.66.68-6.43,1.48-11.08,1.95-1.78-.42-4.69-1.35-7.15-3.72-8.99-8.67,2.06-23.16-.94-47.3-2.27-18.26-10.3-23.8-5.85-35.57,1.61-4.26,2.94-7.84,6.48-15.66,1.25-2.75,2.43-8.71,2.64-16.23.27-9.9-2.02-18.26-4.43-24.3-.47-1.13-2.24-5.72-.19-10.06Zm18.81,142.72c-.02-.16-.04-.33-.06-.49,1.36.11,2.79.54,4.06.24,1.84-.43,3.58-1.33,5.33-2.11,3.92-1.75,8.17-3.03,11.63-5.43,4.25-2.94,7.74-6.96,11.75-10.27,7.34-6.05,6.13-14.05,4.88-21.83-1.05-6.48-6.45-9-12.05-10.43-4.86-1.24-6.88-4.46-7.36-8.91-.27-2.49-.05-5.08.31-7.57.56-3.82,1.7-7.63-3.87-8.82-.89-.19-1.62-1.65-2.19-2.66-1.59-2.86-3.08-5.78-4.59-8.69-3.14-6.05-8.2-8.59-14.22-6.7-9.3,2.92-11.62,6.36-10.7,13.54.59,4.59,2.44,9.21,4.6,13.34,7.64,14.57,9.56,29.52,4.39,45.3-1.47,4.48-3.03,9.09-3.32,13.73-.19,2.84,1.19,6.74,3.28,8.45,1.51,1.24,5.33-.36,8.12-.69h0Zm24.16-76.27c2.2-.88,3.82-1.1,4.83-2,4.88-4.32,9.69-8.73,14.37-13.26,4.09-3.97,3.21-10.47-1.68-13.44-15.18-9.21-28.78-20.46-42.01-32.21-.72-.64-1.73-1.49-2.53-1.41-6.09.58-8.43,5.84-5.32,11.35,2.47,4.39,4.59,8.98,7.09,13.34,6.3,10.92,12.59,21.84,19.21,32.56,1.33,2.17,4.07,3.47,6.05,5.06h0Z"/><path class="cls-1" d="m689.75,63.19c-5.78-5.89-10.14-11.23-13.25-15.35-3.86-5.12-5.76-8.3-6.77-12.52-.84-3.51-.8-6.56-.62-8.62.72-.7,2.2-1.93,4.31-2.26,2.59-.41,4.67.75,5.54,1.23,5.98,3.31,11.47,16.18,14.79,23.7,11.71,26.52,8.92,14.87,11.89,23.1.79,2.2,2.21,6.4,5.56,7.44,2.71.84,4.01-1.2,9.32-1.36,4.12-.13,5.23,1.11,7.64.23,2.76-1,4.33-3.69,5.21-5.78,1.71-2.29,3.81-5.88,4-10.4.11-2.73-.55-4.02-5.25-15.59-2.15-5.29-3.84-7.64-5.13-12.52-1.03-3.9-1.09-6.06-.83-7.96.37-2.71,1.05-2.35,2.33-7.15.89-3.34.99-5.07,2.64-6.84.35-.38,1.83-1.95,2.95-1.55.34.12,1.19.6,1.4,3.73.33,5.01-1.6,7.78-2.6,11.77-1.58,6.29.11,11.79.46,12.93,1.09,3.54,3.1,6.32,6.77,12.11,2.3,3.63,3.51,5.2,3.8,8.02.14,1.35-.03,2.07-.72,5.94-1.68,9.43-1.4,9.08-1.83,10.06-.72,1.66-3.24,6.54-8.77,8.45-3.8,1.31-7.3.47-8.95-.05.75,1.13,14.18,21.37,20.63,26.5,3.02,2.4,4.73,3.64,4.73,3.64,3.71,2.69,4.84,3.12,6.54,4.73,1.27,1.2,2.95,3.13,4.36,6.18.8.72,1.86,1.85,2.61,3.48,1.14,2.5.79,5.35-.42,10.88-.81,3.7-2.31,7.23-4.45,10.51-7.83,11.96-5.48,24.12-1.52,36.4.96,2.99,2.7,5.71,3.79,8.67.62,1.69.64,3.59.96,5.58-1.09-.08-1.61.02-1.7-.14-6.97-11.96-17.18-22.15-19.67-36.54-1.73-9.99,5.7-13.92,6.3-28.25.16-3.84-.15-7.02-.44-9.14-7.6-11.67-15.96-23.39-25.19-35.05-1-1.26-2-2.51-3-3.75-5.2,3.63-8.45,7.39-9.91,11.75-.82,2.46.06,3.07,2.25,19.04,0,0,.55,4.01.59,9.83.02,3.79-.21,4.62-.36,5.09-.61,1.84-1.58,2.72-7.63,7.63-5.49,4.45-6.63,5.3-8.23,6.35-3.2,2.1-3.14,1.41-4.62,2.83-2.76,2.64-6.95,10.78-6.95,10.78-2.11,4.05-1.97,3.66-2.81,5.36-1.38,2.8-2.45,5.28-3.27,7.27-.35.5-2.46,3.5-5,3.28-3.11-.28-4.75-5.23-4.8-8.85-.03-2.08.77-4.24,2.53-6.57,3.29-4.34,8-7.6,12.13-11.29,1.29-1.15,1.56-1.14,3.2-2.35,10.47-7.72,15.74-11.66,17.07-15.67,1.18-3.54-.61-4.17-1.79-12.95-1.3-9.67.71-10.12.07-20.5-.74-11.93-4.02-21.16-5.52-25.31-1.53-4.22-3.11-7.68-4.36-10.18Z"/><path class="cls-1" d="m73.6,186.85c7.24-14.28,10.66-29.55,8.28-45.62-.73-4.95-4.43-9.41-5.45-14.37-2.01-9.72-2.64-19.73-4.68-29.44-1.95-9.26.45-15.04,9.37-19.25,7.68-3.63,14.44-9.19,22.01-14.16.41,1.18.9,1.86.75,2.29-2.65,7.26-2.92,15.6-10.78,20.34-7.64,4.62-13.22,11.36-14.88,20.35-.78,4.24-.92,9.04.28,13.1,2.28,7.7,5.23,15.05,10,21.98,9.17,13.3,9.83,28.67,5.68,43.94-2.56,9.42-6.63,18.42-9.82,27.68-1.67,4.85-2.91,9.84-4.75,16.16-2.78-6.5-5.12-11.81-7.33-17.18-4.59-11.15-12.47-19.79-20.66-28.35-2.85-2.98-4.56-7.21-6.24-11.11-3.44-7.99-4.34-16.31-2.41-24.92.91-4.05,1.52-8.18,2-12.3.79-6.69-.01-8.37-5.7-13.03-7.93,4.95-12.68,12.26-15.27,21.14-2.92,10.04-6.32,19.98-8.46,30.19-1.63,7.75-2.17,15.84-2.22,23.78-.11,16.8.56,33.61.6,50.42,0,5.88-.88,11.77-1.45,18.84-7.71-6.24-11.27-12.75-11.41-21.25-.24-15.61-.79-31.22-1.05-46.83-.22-13.52,2.73-26.3,8.28-38.7,2.6-5.81,3.71-12.37,4.88-18.71,1.3-7.02,1.77-14.18,2.86-21.24,1.15-7.41,5.13-11.15,12.53-12.08,3.95-.5,7.93-.97,11.9-1.08,5.71-.16,9.6,2.34,10.44,7.86,1.01,6.65,1.83,13.59,1.02,20.19-1.67,13.5,1.98,25.64,7.31,37.6.45,1,1.37,1.84,2.2,2.62,3.96,3.69,7.96,7.33,12.15,11.17l.02-.03Z"/><path class="cls-1" d="m889.71,80.33c3.45.67,7.89,2.14,9.75,5.76,2.62,5.1-2.56,9.3-5.77,21.62-3.25,12.5-1.94,23.61-1.12,30.51.35,2.91.79,4.89,1.66,8.85,2,9.08,3.27,10.61,4.41,11.53,1.09.88,2.21,1.29,2.96,2.79.64,1.26.66,2.8.39,5.08-.27,2.32-.27,9.93.17,25.21.12,4.07.2,6.81.67,10.65.62,5.09,1.57,9.26,2.34,12.17.19.62.38,1.28.54,1.98.31,1.32.51,2.56.63,3.69-.01.14-.19,2.16-1.93,3.1-1.42.77-3.27.49-4.52-.72-3.07-.3-6.35-.75-9.82-1.38-4.17-.76-8.01-1.69-11.48-2.68-6.14-1.24-11.05-3.06-14.54-4.59-8.03-3.53-11.4-6.81-12.24-7.65-1.03-1.03-2.5-2.52-3.83-4.78-2.9-4.92-3.03-9.88-3.06-12.24-.13-9.18.18-37.71-1.95-43.93-.62-1.83-1.5-3.51-1.5-3.51-.78-1.51-1.59-2.69-2.21-3.51-.43-.58-.75-.96-.85-1.08-1.92-2.36-1.25-7.44-1.7-10.95-.65-5.04-3.32-4.44-4.42-9.71-.84-4.07.56-5.33,1.32-11.92.94-8.02-.77-9.29,0-15.01.5-3.72,2-8.96,6.62-15.01,2.31,2.86,3.41,5.42,3.97,7.07,3.39,9.9-2.63,15.76.09,27.91.9,4.05,1.49,3.66,2.35,7.74,1.16,5.45,1.31,10.97.64,16.7-.3,2.53.24,5.82,1.69,7.79,6.38,8.66,6.44,18.63,6.6,28.58.07,4.48-.83,9-.6,13.46.43,8.24,2.91,15.89,9.1,21.68,1.47,1.37,4.32,2.39,6.21,1.99,8.04-1.68,15.37-1.37,21.78,4.59,1.22,1.14,3.21,1.44,4.85,2.13.52-.23,1.04-.45,1.56-.68-1.93-9.55-3.6-17.32-4.74-22.56-6.97-31.89-10.45-47.83-10.97-48.9-2.06-4.29-6.23-11.99-3.87-19.92.65-2.17,1.34-2.88,2.95-7.19,1.67-4.48,2.57-8.13,3.87-14.2,1.16-5.37,2.55-12.27,3.97-20.44Z"/><path class="cls-1" d="m604.62,29.22c1.52-1.35,3.07-4.35,6.06-1.42.41.4,2.29-1.21,3.56-1.58.71-.21,1.57.2,2.35.33-.19,1-.05,2.45-.61,2.94-4.86,4.26-9.84,8.38-14.81,12.5-.86.71-1.61.97-2.28.93-1.68-.1-2.28-1.92-3.66-2.95-2.33-1.73-4.26.74-8.16.86-2.99.09-5.19-1.35-9.6-4.22-4.67-3.04-4.62-4.39-8.08-5.91-2.36-1.03-4.36-1.17-8.38-1.45-5.9-.41-8.86-.61-11.85,1.25-1.14.71-4.27,2.66-5.7,6.61-1.95,5.38,1.11,9.42,3.19,19.67,2.82,13.95-.33,18.92,2.99,21.89,4.13,3.7,9.11-3.94,18.32-.42,2.93,1.12,4.41,2.69,7.6,2.45,2.93-.22,5.73-1.87,8.73-4.68,3.43,6.34,6.84,12.65,10.25,18.94.2.36.37.74.67,1.26,3.07,5.22,9.69,10.2,15.92,9.26,2.4-.37,3.73-1.46,4.37-.78,1.1,1.17-1.39,6.01-2.86,5.85-.14-.01-.29-.08-.47-.16-.93-.42-5.3-1.26-6.86-.84-2.92.79-5.46.08-7.86-.58-7.16-1.98-12.41-10.29-14.17-14.95-.26-.69-.75-2.01-1.91-3.41-1.72-2.07-3.99-2.99-6.64-3.6-8.13-1.89-26.58,8.19-27.69,18.98-.34,3.21-.51,7.24.92,9.7,5.3,9.08,10.98,10.68,14.01,20.43,1.8,5.77-.21,7.46,2.33,10.71,2.47,3.17,5.71,3.24,16.28,5.98,10.73,2.79,8.56,3.01,14.29,4.15,10.12,2.01,17.06,1.33,19.49,5.3.27.44.92,2.14.73,3.49-.07.47-1.71,1.06-2.58.98-6.11-.55-29.66-5.9-34.24-6.11-3.67-.17-3.18-1.64-7.81-2.49-5.78-1.07-10.61.49-12.71,1.19-1.95.65-4.73,1.82-7.7,3.97.22-3.29.18-5.64.56-7.91,1.96-12-1.33-22.88-6.05-33.21-4.79-10.48-7.3-21.19-6.87-33.09.35-9.44-.9-17.67-.52-34.43.53-23.55,2.15-27.56,4.43-30.35,4.31-5.27,10.76-6,15.26-6.51,6.53-.74,11.79,1.04,14,1.82,7.27,2.55,11.98,5.72,11.98,5.72,3.22,2.17,5.18,4.08,8.23,3.68,2.32-.31,3.06-1.67,5.46-2.18,3.23-.69,6.11.87,8.13,2.41Z"/><path class="cls-1" d="m116,229.31c-.36-6.92,7.88-13.02,9.89-19.08,3.4-10.25,6.68-20.56,10.69-30.57,4.35-10.83,10.26-20.82,18.46-29.37,2.17-2.27.63-6.14.63-6.14.02-5.5-1.42-9.45-2.2-11.84-.88-2.7-.29.01-3.82-25.82-.58-4.25-.98-7.28-2.88-10.95-2.04-3.93-4.58-6.24-6.42-7.96-10.85-10.13-20.04-18.56-18.15-23.03.47-1.12,1.76-2.63,5.79-3.47,3.86,3.18,8.4,7.49,12.82,13.16,5.67,7.26,9.21,14.29,11.44,19.71-.33,3.77-.38,8.7.58,14.34,1.31,7.7,3.99,13.7,6.15,17.66,12.68-12.93,13.87-24.46,14-28.7.27-8.71-1.98-19.09-3.97-21.8-11.33-15.42-3.76-27.99,9.18-36.27,2.43-1.55,4.98-2.03,7.29-1.54,4.16.88,6.28,4.73,6.7,5.49,2.27,4.15,1.24,8.28.97,9.26-4.01.72-7.24,1.6-9.56,2.32-2.34.72-3.76,1.29-5.21,2.03-2.35,1.2-4.42,2.28-5.66,4.44-.87,1.51-1.08,3.11-1.05,4.75.18,9.45,8.21,15.48,8.63,26.43.09,2.44-.21,4.53-.46,6.16-.9,6.1-2.9,10.42-4.07,12.96-6.86,14.87-10.29,22.38-10.94,25.8-1.8,9.55-2.07,13.14-2.07,13.14-.01,2.03-.27,3.85-.76,5.56-1.32,4.59-3.87,7.56-4.79,8.64-6.39,7.52-13.41,21.95-16.78,31.42-2.53,7.12-4.12,14.58-4.72,17.43-1.06,4.99-1.09,7.06-1.73,9.95-.4,1.79-.85,3.13-1.12,3.96-.24.74-.85,2.6-2.24,5.86-1.53,3.6-14.56-2.42-14.63-3.9Z"/><path class="cls-1" d="m265.59,24.29c15.55,7.66,20.73,19.47,19.79,33.8-.52,7.96-3.25,15.8-4.91,23.7-.36,1.69-1.07,3.78-.43,5.14,5.95,12.58,3.07,25.44,1.73,38.35-1.26,12.16-2.35,24.48,5.19,35.4,1.54,2.22,3.47,4.18,5.83,6.98,8.79-12.02,20.39-18.07,34.39-17.99,6.04.03,12.68,2.01,17.88,5.04,4.78,2.79,10.28,6.74,8.9,14.36-.81-.87-1.69-1.69-2.41-2.62-4.02-5.13-9.39-6.45-15.27-3.15-3.73,2.09-6.89,5.14-10.61,7.24-2.05,1.15-4.8,1.9-7.1,1.65-4.24-.45-8.44-1.61-12.56-2.78-4.66-1.32-7.34.62-9.62,4.4-2.91,4.82-4.12,4.62-8.93,1.75-14.91-8.91-19.03-23.18-19.93-38.77-.83-14.3-.53-28.67,4.5-42.39,2.12-5.78,3.25-11.22,1.61-17.34-.64-2.37.37-5.56,1.57-7.92,3.94-7.84,1.24-13.71-4.81-19-2.65-2.32-6.87-4.83-7.07-7.49-.43-5.76,1.3-11.68,2.27-18.37h-.02Z"/><path class="cls-1" d="m500.17,132.57c-4.63,5.4-9.22,10.8-13.85,16.15-3.74,4.32-6.8,4.11-8.55-1.52-1.47-4.75-2.05-10.14-1.59-15.1,1.48-16.12,3.54-32.18,5.53-48.26.23-1.85.17-3.56-.12-5.16-.84-4.58-3.75-5.73-6.63-11.26-1.25-2.41-.71-2.14-2.66-6.91-1.72-4.21-3.33-7.3-5.27-10.93-7.28-13.61-7.69-13.14-9.04-16.39-1.88-4.54-3.59-11.45-2.26-21.47,3.29-4.26,5.62-4.91,7.16-4.68,3.27.48,5.27,5.25,13.11,36.28,4.59,18.16,5.56,23.04,9.04,28.26.74,1.1,2.62,3.78,3.7,7.85.69,2.6.93,5.31.13,12.7-.3,2.83-.74,6.17-3.01,18.74-.16.88-.87,4.8-1.99,10.81-.92,4.95-1.71,9.06-2.26,11.94,3.63-1.31,5.61-1.99,7.57-2.72,5.38-1.98,10.7-4.15,16.14-5.92,4.82-1.58,18.83,5.52,22.04,9.29,3.68,4.3,8.65,7.42,13.32,11.27.04-.05-.36,1.16-1.1,1.44-5.04,1.95-10.12,3.76-15.25,5.41-.62.2-1.72-.77-2.44-1.4-4.82-4.23-8.53-7.26-10.54-9.4-2.33-2.49-5.9-5.79-11.18-9.02Z"/><path class="cls-1" d="m780.99,193.05c-.38-1.39-.91-3.46-1.4-5.99-2.46-12.58,2.19-24.09,6.64-59.5,1.74-13.84,4.19-27.58,6.3-41.38.79-5.18-.04-9.87-3.94-13.78-7.24-7.27-14.44-14.59-21.47-22.06-.94-1-.87-2.97-1.23-4.5-.03-.12.13-.3.21-.44,3.13-5.32,6.26-10.64,9.89-16.82,3.12,4.95,6.53,9.38,8.89,14.3,3.78,7.9,8.85,15.94,9.63,24.26.67,7.12,5.61,11.47,6.64,17.3.69,3.92.61,7.97-1.43,19.88-1.93,11.28-3.95,19.39-4.55,21.93-.75,3.19-10.65,46.76,5.09,57.32,3.18,2.13,9.27,4.17,18.52,9.2,1.26.69,3.86,2.12,6.51,4.79,2.13,2.14,1.79,2.55,4.05,5.11,4.12,4.66,6.83,5.09,7.63,8.26.4,1.61.11,3.14-.31,4.35-1.45-.25-3.03-.21-4.32-.79-5.23-2.36-10.43-4.81-15.53-7.45-2.05-1.06-1.6-2.13-3.16-3.27-3.09-2.27-4.55-1.25-7.89-3.21-3.27-1.92-2.94-3.53-6.29-4.97-.31-.13-1.84-.48-4.91-1.17-4.44-1-5.64-1.2-7.13-1.23-1.76-.04-3.19.17-4.08.34l-2.37-.48Z"/><path class="cls-1" d="m403.73,163.78c-.54-3.57-1.57-7.16-1.52-10.72.14-12.57-3.25-23.73-7.94-34.99-2.88-6.92-3.86-15.42-3.93-23.22-.09-9.42,1.09-19,2.77-28.26.52-2.85,1.47-23.97-1.48-36.1-.79-3.25-1.25-5.92-2.16-11.25-.93-5.44-.94-6.4-.75-7.35,1.08-5.64,8.17-8.42,11.67-9.51.74,6.03,1.85,12.91,3.57,20.41,2.58,11.25,4.4,14.67,3.82,21.03-.77,8.45-4.47,7.52-7.41,18-1.79,6.37-1.56,15.85-1.11,34.81.12,5.08.18,7.63.36,8.46,2.71,12.91,13.79,17.23,16.35,26.6.62,2.28,1.23,3.66,2.21,4.13,1.3.63,2.61-.33,4.03-1.07,4.73-2.45,10.48-2.39,14.34-.51,2.03.99,3.66,2.54,4.14,3.03,2.72,2.7,2.61,4.38,4.52,5.19,2.16.91,3.23-.83,5.9-.16,2.35.59,3.76,2.49,4.49,3.35,2.12,2.5,6.36,5.52,15.68,7.71-.01.51-.03,1.01-.04,1.52-1.75.37-3.5.79-5.26,1.08-6.35,1.01-12.78,1.55-19.03,3.1-2.73.67-4.98.74-6.99-.16-2.47-1.11-2.16-2.68-4.61-4.38-3.46-2.4-4.89-.03-11.23-2.11-2.42-.8-3.55-1.58-5.65-1.3-1.96.27-3.39,1.28-4.52,2.16-4.3,3.36-7.97,7.65-10.22,10.52Z"/><path class="cls-1" d="m359.95,27.32c4.24.16,4.72,3.09,5.57,6.05,2.19,7.63,5.72,15.04,6.72,22.81.97,7.55.33,15.59-1.15,23.11-3.08,15.66-7.42,31.18-5.75,47.29.72,6.98,3.5,13.75,5.32,20.64.28,1.05.39,2.14.58,3.21-1.19.19-2.4.66-3.55.52-7.8-.93-10.22-3.58-11.62-11.37-.79-4.37-2.24-8.63-3.54-12.89-1.5-4.9-4.13-9.69-4.48-14.65-.28-3.92,1.51-8.37,3.47-11.99,4.8-8.91,11.09-17.09,15.18-26.29,4.58-10.32,4.13-16.99-4.7-25.19-6.54-6.07-6.45-13.66-2.04-21.24h-.02Z"/><path class="cls-1" d="m341.28,0c9.54.18,14.78,3.28,17.13,5.03,1.38,1.02,3.94,2.96,3.66,5.03-.17,1.21-1.21,1.74-3.66,3.43-5.11,3.52-4.14,3.66-9.3,7.06-1.48.97-3.45,2.21-5.84,3.53-1.94-1.63-6.02-5.52-8.09-11.95-1.33-4.14-1.32-7.77-1.13-10.06,2.41-.69,4.81-1.37,7.22-2.06Z"/></svg>