<?xml version="1.0" encoding="UTF-8"?><svg id="Layer_1" xmlns="http://www.w3.org/2000/svg" viewBox="0 0 1000 350"><defs><style>.cls-1,.cls-2{stroke-width:0px;}.cls-2{fill:#fff;}</style></defs><path class="cls-2" d="m1000,350H0C0,233.33,0,116.67,0,0c333.33,0,666.67,0,1000,0,0,116.67,0,233.33,0,350Zm-124.29-226.78c10.62,10.88,12.51,22.86,6.66,35.83-2.59,5.75-5.2,11.53-7.23,17.49-8.09,23.8-5.4,47.09,3.29,70.22,2.65,7.06,4.89,14.34,4.29,22.31-.67,8.94-.36,17.96-.38,26.95,0,1.47.5,2.94.86,4.87,3.29-3.91,5.66-7.58,8.82-10.35,10.98-9.6,22.48-18.61,33.26-28.42,4.6-4.19,8.98-4.07,14.06-2.43,2.84.92,5.59,2.14,8.46,2.96,6.56,1.87,9.28-.49,8.29-7.15-1.13-7.57-2.29-15.14-3.58-22.68-1.84-10.75-4.71-20.98-12.45-29.37-5.27-5.72-6.3-12.91-4.77-20.43,4.99-.39,9.74-1.05,14.49-1.03,3.25.01,3.81-1.43,4.06-4.16.92-10.02,2.07-20.03,3.03-30.05.1-1.03-.31-2.27-.86-3.19-1.61-2.7-3.7-5.14-5.07-7.95-4.22-8.67-8.34-17.39-12.21-26.22-2.4-5.49-5.99-8.47-12.22-8.21-2.78.11-5.6-.62-8.4-.96-9.71-1.2-19.43-2.4-29.15-3.59-4.11-.5-7.02,1.07-8.8,4.91-1.93,4.18-4.04,8.27-6.18,12.62-1.54-1.23-2.74-2.38-4.12-3.24-1.14-.71-2.5-1.07-3.76-1.59-.21,1.39-.65,2.8-.59,4.18.33,8.32.77,16.64,1.22,25.86,1-.69,3.06-1.36,3.65-2.68,1.97-4.44,3.41-9.12,5.33-14.5Zm-210.13-1.68c-.49,2.98-.77,4.59-1.03,6.2-1.93,12.19-2.27,24.27,1.59,36.25,2.19,6.8,3.91,13.76,5.51,20.73.37,1.63-.04,4.05-1.07,5.3-6.43,7.83-13.11,15.46-19.78,23.09-.85.97-2.22,1.47-3.2,2.35-4.13,3.69-8.84,6.95-12.13,11.29-4.32,5.69-2.83,10.37,2.27,15.42,10.01,9.93,22.48,9.98,35.33,9.65.67-5.23-3.42-4.52-6.12-4.97-9.28-1.53-14.66-7.37-17.53-15.79-2.33-6.83,1.95-11.37,6.35-15.58,1.27-1.22,3.06-1.92,4.62-2.83,6.01-3.51,12.1-6.9,18.02-10.56,3.46-2.13,4.31-5.16,2.21-8.94-1.69-3.04-3.28-6.17-4.59-9.4-5.78-14.26-3.75-22.81,7.66-30.79.93,1.18,1.79,2.67,3,3.75,11.63,10.38,17.07,26.3,31.02,34.53-1.85,3.27-3.92,6.33-5.39,9.66-3.95,8.97-8.09,17.94-6.3,28.25,2.49,14.39,12.7,24.59,19.67,36.54.09.16.61.06,1.7.14-.32-1.98-.34-3.89-.96-5.58-1.09-2.96-2.83-5.68-3.79-8.67-3.97-12.28-6.32-24.44,1.52-36.4,4.18-6.38,5.9-13.72,4.87-21.39-.32-2.42-1.59-4.72-2.84-8.27q4.5-7.63-4.07-14c-.53-.4-1.08-.78-1.63-1.16-9.77-6.8-19.54-13.59-30.33-21.1,3.63,0,6.32-.24,8.95.05,7.24.79,14.44,1.83,21.67,2.68,1.08.13,2.5.11,3.28-.48,5.21-3.93,5.58-13.2.5-17.24-4.41-3.51-8.92-7.11-13.93-9.6-9.29-4.62-14.15-12.84-18.59-21.38-1.44-2.76-1.49-6.38-1.62-9.62-.06-1.55.92-4.3,1.87-4.51,2.06-.45,4.44.21,6.61.76.96.25,1.71,1.34,3.11,2.51,3.5-8.6,7.47-16.31,14.74-21.87,1.59-1.21.87-3.75-2.29-3.71-6.8.08-13.6-.16-20.4.05-6.07.19-11.66,1.89-14.32,8.07-3.56,8.29-2.97,16.7.84,24.68,5.4,11.31,14.35,19.77,23.3,28.27,3.44,3.27,5.82,7.66,9.2,12.24-7.18,1.51-12.85,2.51-18.41,3.94-4.89,1.26-9.05.1-12.17-3.54-2.3-2.68-4.89-5.87-5.44-9.16-1.62-9.65-8.88-15.43-14.81-21.61-6.24-6.5-14.5-11.06-21.9-16.44-2.67-1.94-5.4-3.81-8.08-5.69-1.64,8.07-3.26,15.5-4.64,22.97-1.35,7.33-.65,7.99,6.7,8.49,10.14.69,20.27,1.55,31.23,2.39ZM109.51,218.61c-4.19-3.84-8.19-7.48-12.15-11.17-.83-.77-1.75-1.61-2.2-2.62-5.32-11.96-8.97-24.1-7.31-37.6.82-6.6,0-13.54-1.02-20.19-.84-5.52-4.73-8.01-10.44-7.86-3.98.11-7.95.58-11.9,1.08-7.4.94-11.38,4.67-12.53,12.08-1.1,7.06-1.56,14.23-2.86,21.24-1.18,6.33-2.28,12.9-4.88,18.71-5.56,12.4-8.51,25.19-8.28,38.7.26,15.61.81,31.22,1.05,46.83.13,8.5,3.7,15.01,11.41,21.25.58-7.07,1.47-12.96,1.45-18.84-.04-16.81-.71-33.62-.6-50.42.05-7.94.6-16.03,2.22-23.78,2.14-10.2,5.54-20.15,8.46-30.19,2.58-8.88,7.34-16.19,15.27-21.14,5.69,4.66,6.49,6.34,5.7,13.03-.49,4.12-1.09,8.25-2,12.3-1.94,8.61-1.03,16.93,2.41,24.92,1.68,3.9,3.39,8.13,6.24,11.11,8.18,8.56,16.07,17.2,20.66,28.35,2.21,5.37,4.55,10.68,7.33,17.18,1.84-6.32,3.07-11.31,4.75-16.16,3.19-9.26,7.26-18.26,9.82-27.68,4.15-15.26,3.48-30.64-5.68-43.94-4.77-6.93-7.72-14.28-10-21.98-1.2-4.06-1.07-8.86-.28-13.1,1.66-8.99,7.23-15.73,14.88-20.35,7.86-4.74,8.13-13.08,10.78-20.34.16-.43-.34-1.11-.75-2.29-7.57,4.97-14.33,10.53-22.01,14.16-8.92,4.21-11.32,10-9.37,19.25,2.05,9.71,2.68,19.72,4.68,29.44,1.02,4.96,4.72,9.42,5.45,14.37,2.39,16.07-1.03,31.34-8.28,45.62ZM857.08,67.55l-1.62-.05c-.49.62-1.04,1.21-1.47,1.87-10.58,16.51-20.88,33.2-31.85,49.44-4.17,6.18-5.26,11.75-1.95,18.41,3.25,6.54,5.94,13.37,9.32,19.84,8.1,15.51,11.23,32.6,15.92,49.18,2.09,7.37,3.19,15.03,4.74,22.56-.52.23-1.04.45-1.56.68-1.64-.69-3.63-.99-4.85-2.13-6.4-5.96-13.74-6.28-21.78-4.59-1.89.4-4.74-.62-6.21-1.99-6.2-5.79-8.67-13.45-9.1-21.68-.23-4.46.67-8.98.6-13.46-.17-9.96-.22-19.92-6.6-28.58-1.46-1.98-1.99-5.26-1.69-7.79.99-8.45.2-16.45-2.99-24.44-3.47-8.73-9.22-15.58-16.2-22.49-1,1.89-2.13,3.49-2.73,5.26-1.96,5.82-3.43,11.81-5.69,17.51-1.34,3.38-.8,5.14,1.9,7.59,6.73,6.1,13,12.71,19.39,19.18,2.4,2.43,2.86,5.2,1.99,8.68-3.59,14.45-5.07,29.09-3.95,44.05.5,6.67,1.59,12.26,8.04,15.83,2.51,1.39,4.38,4.04,6.36,6.29,7.25,8.22,14.42,16.51,21.36,24.48,8.52-4.55,17.01-9.08,25.1-13.4,2.75,1.86,4.84,3.28,6.93,4.7.47-.24.94-.48,1.4-.72-.42-4.15-.55-8.36-1.33-12.44-1.43-7.5-3.93-14.86-4.73-22.41-.89-8.34-1.15-16.91-.17-25.21.49-4.14.02-5.83-3.35-7.87-7.02-4.23-12.9-8.88-13.14-18.74-.46-19.42,1.46-37.96,13.96-53.77,2.84-3.59,5.16-9.23,13.02-5.98-2.55-10.03-4.81-18.91-7.07-27.79Zm-302.28,18.05c-3.7-.71-6.91-.58-9.28-1.93-5.31-3.02-10.3-6.62-15.22-10.26-4.4-3.26-8.27-7.29-12.85-10.24-6.04-3.88-10.69-4.59-16.2.4-3.3,2.99-7.89,4.86-12.21,6.32-4.59,1.55-7.18,4.46-7.35,8.9-.47,12.45-1.02,24.94-.55,37.37.45,11.76,2.76,23.44,3.13,35.2.39,12.21,3.99,23,10.13,33.4,6.05,10.25,10.54,21.15,9.23,33.57-.25,2.35-.04,4.75-.04,8.13,3.49-1.9,6.04-3.03,8.32-4.58,5.08-3.45,10.13-6.97,14.98-10.73,2.72-2.12,5.11-2.68,7.92-.43,5.05,4.04,10.14,8.03,15.22,12.03,1,.79,2.01,2.12,3.09,2.19,6.87.45,13.75.68,20.63.83.98.02,2.77-.68,2.82-1.18.1-1.15-.26-2.78-1.07-3.52-6.9-6.37-13.7-12.88-21.03-18.73-5.43-4.34-11.73-4.81-18.21-1.5-7.87,4.02-15.08,3.29-21.32-2.98-6.18-6.22-11.98-12.91-17.19-19.96-1.79-2.42-1.88-6.55-1.75-9.86.46-11.11,20.35-22.67,29.59-21.29,4.32.65,7.81,1.98,10.09,6.6,4.77,9.67,10.41,18.9,15.57,28.37,1.58,2.91,2.65,3.11,4.98.48,4.29-4.84,9.21-9.12,13.54-13.92,2.64-2.92,4.87-6.28,6.85-9.69.69-1.19.11-3.12.11-4.71-2.44.94-3.38,2.05-4.41,3.07-9.05,8.98-15.97,8.33-23.12-2.16-.28-.41-.56-.83-.84-1.24-4.28-6.22-8.56-12.43-12.87-18.69-5.72,5.57-10.95,7.22-18.11,3.38-13.64-7.31-22.72-18.46-28.92-32.35-3.21-7.18-1.99-10.67,4.36-15.24,4.63-3.34,8.99-7.22,12.87-11.42,5.01-5.43,11.64-6.81,17.74-2.58,2.71,1.88,5.25,4.08,7.62,6.39,4.76,4.65,9.24,9.58,14.04,14.18,1.78,1.71,3.82,4.25,6.8,1.67,5.25-4.55,10.52-9.09,15.65-13.79.59-.54.34-2.01.47-3.05-.9-.08-1.89-.44-2.66-.18-1.4.47-3.38,2.24-3.87,1.86-3.57-2.79-5.09.38-6.68,1.86ZM110.58,309.49c1.76-1.43,2.13-1.7,2.46-2.01,7.34-6.76,12.49-16,22.51-19.79,1.17-.44,2.05-2.09,2.72-3.36,2.72-5.14,5.66-10.2,7.84-15.57,1.77-4.36,2.91-9.05,3.74-13.7,1.1-6.17-.14-13.49,2.79-18.45,6.1-10.35,13.73-19.97,21.81-28.91,3.88-4.29,6.06-8.19,6.45-13.81.31-4.39,1.17-8.97,2.91-12.98,5.19-11.99,12.1-22.81,22.21-31.5,4.94-4.25,4.98-10.6.57-15.31-6.4-6.83-10.81-14.46-11.36-23.94-.09-1.59.32-4.09,1.35-4.67,1.57-.89,3.88-.56,5.87-.58,1.65-.02,3.4.63,4.92.24,4.4-1.14,8.7-2.66,13.48-4.17-1.09-3.73-1.92-8.19-3.69-12.24-2.54-5.79-8.22-7.89-13.71-4.85-13.45,7.43-21.8,19.48-11.5,35.6,4.17,6.52,5.68,14.39,2.56,22.01-3.42,8.34-8.72,15.51-15.32,21.65-6.64-5.26-7.32-18.06-2.12-25.49-4.13-18.88-19.5-25.94-34.51-35.04-.27,2.29-1.06,4.15-.48,4.81,6.62,7.59,9.79,18.04,20.5,22.33,9.38,3.75,11.36,9.88,8.06,19.47-2.89,8.39-3.86,16.87-1.26,25.43,1.3,4.28,3.62,8.25,4.84,12.54.53,1.84.21,4.97-1.02,6.09-8.73,8-15.27,17.59-20.31,28.12-4.66,9.73-8.59,19.81-12.64,29.82-3.85,9.51-6.88,18.84-18.93,22.21-6.11,1.71-11.89,6.95-10.88,15.76.72,6.28.14,12.71.14,20.27Zm160.97-215.58c-1.46,6.75-3.61,12.65-3.62,18.56,0,2.73,4.03,5.61,6.5,8.17,5.65,5.85,7.91,12.03,3.4,19.73-1.36,2.33-2.61,5.5-2.15,7.96,1.19,6.37-.34,11.83-2.88,17.56-6.03,13.61-7.38,28.24-7.61,42.88-.25,15.96,2.8,30.82,17.02,41.03,4.58,3.29,5.77,3.59,9.03-1.11,2.55-3.68,5.38-5.46,9.92-3.76,4.03,1.5,8.12,3,12.32,3.78,2.27.42,5.08-.13,7.2-1.15,3.86-1.86,7.24-4.73,11.11-6.58,6.11-2.92,11.37-1.17,15,4.36.66,1,1.47,1.9,2.21,2.85,1.94-7.66-3.26-12.11-7.82-15.31-4.96-3.48-11.44-6-17.46-6.49-13.96-1.14-25.97,4.17-35.62,15.75-2.14-3.03-3.93-5.18-5.3-7.56-6.72-11.72-4.72-24.2-2.57-36.49,2.28-13.06,6.11-25.95,1.1-39.23-.54-1.43.33-3.51.81-5.21,2.23-7.93,5.54-15.71,6.64-23.79,1.99-14.54-2.31-26.97-17.25-35.95Zm185.51,122.75c4.17,3.23,7.75,5.88,11.19,8.71,3.58,2.94,7,6.08,10.54,9.07.72.61,1.81,1.54,2.44,1.35,5.13-1.59,10.22-3.34,15.25-5.22.74-.27,1.14-1.45,1.1-1.39-4.67-3.72-9.64-6.72-13.32-10.87-3.22-3.62-17.22-10.47-22.04-8.96-5.44,1.71-10.76,3.8-16.14,5.71-1.96.7-3.93,1.36-7.57,2.62.88-4.77,1.03-8.35,2.26-11.52,1.24-3.2,3.73-5.88,5.37-8.95,5.71-10.66,7.36-21.26-.5-31.81-1.65-2.22-2.8-4.93-3.7-7.57-3.08-9.07-5.4-18.44-9.04-27.27-4.49-10.92-12.74-18.74-23.95-22.57-2.94-1.01-7.11.1-10.1,1.51-1.04.49-.32,4.87-.26,7.47.08,3.43.62,6.88.37,10.27-.34,4.7-2.15,9.46-1.61,13.99.45,3.76,3.39,7.22,5.63,11.6,1.72-1.93,2.9-3.72,4.51-4.95,1.61-1.23,3.7-2.79,5.48-2.68,7.29.46,13.67,3.53,18.89,8.61,4.38,4.27,7.61,9.13,6.75,15.84-1.99,15.5-4.05,31-5.53,46.56-.46,4.79.12,10,1.59,14.57,1.75,5.44,4.8,5.64,8.55,1.47,4.63-5.16,9.21-10.36,13.85-15.58Zm286.99,35.2c.65.17,1.3.34,1.95.52,1-1.21,2.01-2.41,2.99-3.63,3.44-4.26,6.74-8.66,10.36-12.76,3.9-4.42,6.26-4.41,9.92.32,3.75,4.85,6.95,10.12,10.54,15.1.87,1.2,2.16,2.38,3.51,2.89,5.37,2.04,10.81,3.88,16.28,5.62,1.35.43,2.91.21,4.38.29-.04-1.46.35-3.11-.19-4.36-2.69-6.24-5.83-12.3-8.38-18.59-1.23-3.03-2.74-4.06-6.07-4.58-10.12-1.59-20.96-.6-27.99-11.48-9.23-14.28-14.35-29.08-11.25-46.07,1.28-7.01,3.74-13.86,4.45-20.91.67-6.59.99-13.71-.86-19.91-1.69-5.67-7.1-9.42-8.58-16.42-1.73-8.19-7.69-15.59-12.35-23-2.91-4.62-6.79-8.63-10.47-13.19-2.9,6.55-5.4,12.19-7.9,17.84-.07.15-.21.34-.16.46.54,1.47.69,3.44,1.74,4.33,7.85,6.61,15.83,13.06,23.86,19.45,4.33,3.45,5.69,8.01,5.5,13.24-.51,13.94-1.37,27.88-1.51,41.83-.19,19.95.14,39.91.23,59.87.02,4.39,0,8.78,0,13.18Zm-381.2-10.08c.47,0,.93,0,1.4-.01,2.75-4.46,5.34-9.04,8.28-13.37,3.58-5.26,6.4-6.25,11.79-3.2,3.79,2.14,7.53,5.04,10.11,8.49,3.26,4.35,6.65,5.02,11.6,3.96,6.25-1.34,12.68-1.81,19.03-2.7,1.76-.25,3.51-.62,5.26-.94.01-.44.03-.88.04-1.32-5.23-2.23-10.5-4.39-15.68-6.72-1.62-.73-3.4-1.6-4.49-2.92-2.43-2.92-4.89-5.95-6.56-9.32-1.8-3.63-4.16-4.48-7.63-3.17-4.95,1.87-10.08,3.44-14.71,5.92-3.87,2.08-5.03,1.19-6.24-2.67-2.95-9.4-7.93-17.44-16.35-23.17-2.16-1.47-4.52-4.2-4.81-6.59-1.31-10.82-1.24-21.44,5.56-31.1,3.29-4.67,5.64-10.21,7.41-15.68,1.5-4.65,2.95-10.06,1.96-14.61-2.16-9.97-8.25-17.54-18.12-21.52-2.65,3.36-5.34,6.5-7.66,9.89-.55.81-.36,2.94.33,3.67,11.63,12.37,12.06,26.84,8.82,42.4-1.68,8.07-2.86,16.42-2.77,24.62.08,6.8,1.05,14.2,3.93,20.23,4.69,9.81,8.09,19.53,7.94,30.48-.04,3.11.99,6.23,1.52,9.34Zm-40.99-147.11c-5.09,7.13-5.89,14.68.06,21.34,8.05,8.99,7.87,15.67,2.35,25.52-4.92,8.77-11.94,16.34-17.55,24.77-2.28,3.43-4.48,7.69-4.57,11.62-.11,4.98,2.06,9.98,3.1,15,.91,4.36,1.95,8.74,2.33,13.16.68,7.89,2.84,10.75,10.52,12.4,1.13.24,2.38-.11,3.58-.19-.09-1.09-.1-2.18-.28-3.25-1.17-7.01-3.31-14.01-3.39-21.04-.17-16.19,5.59-31.24,10.11-46.55,2.17-7.35,3.55-15.3,3.29-22.9-.27-7.82-3.1-15.53-4.58-23.33-.57-3.03-.77-5.99-4.99-6.54Zm-19.85-29.45c5.55,8.2,10.93,16.14,16.3,24.08,1.97-1.21,3.8-2.6,5.84-3.53,4.74-2.16,9.79-3.72,14.31-6.24,5.75-3.19,5.89-5.47,1.7-10.42-8.76-10.33-26.32-12.45-38.16-3.89Z"/><path class="cls-1" d="m875.71,123.22c-1.92,5.38-3.37,10.05-5.33,14.5-.59,1.32-2.65,1.99-3.65,2.68-.45-9.22-.89-17.54-1.22-25.86-.05-1.38.38-2.79.59-4.18,1.26.52,2.61.88,3.76,1.59,1.38.86,2.58,2,4.12,3.24,2.14-4.35,4.26-8.44,6.18-12.62,1.77-3.85,4.68-5.42,8.8-4.91,9.72,1.19,19.43,2.39,29.15,3.59,2.8.35,5.62,1.08,8.4.96,6.22-.26,9.81,2.72,12.22,8.21,3.87,8.83,7.99,17.56,12.21,26.22,1.37,2.81,3.46,5.25,5.07,7.95.55.92.96,2.15.86,3.19-.96,10.02-2.11,20.02-3.03,30.05-.25,2.73-.81,4.17-4.06,4.16-4.75-.02-9.5.64-14.49,1.03-1.52,7.53-.5,14.72,4.77,20.43,7.74,8.39,10.61,18.62,12.45,29.37,1.29,7.54,2.45,15.11,3.58,22.68.99,6.65-1.73,9.02-8.29,7.15-2.87-.82-5.62-2.04-8.46-2.96-5.08-1.64-9.46-1.76-14.06,2.43-10.78,9.81-22.28,18.82-33.26,28.42-3.16,2.77-5.53,6.44-8.82,10.35-.36-1.93-.86-3.4-.86-4.87.02-8.99-.29-18,.38-26.95.6-7.96-1.64-15.24-4.29-22.31-8.69-23.13-11.39-46.42-3.29-70.22,2.03-5.96,4.63-11.74,7.23-17.49,5.85-12.96,3.96-24.95-6.66-35.83Zm25.45,138.71c-.02-.18-.05-.37-.07-.55,1.52.12,3.12.6,4.53.27,2.06-.48,4-1.49,5.95-2.36,4.38-1.95,9.12-3.38,12.99-6.06,4.75-3.28,8.64-7.77,13.12-11.47,8.2-6.76,6.85-15.69,5.45-24.37-1.17-7.24-7.2-10.05-13.46-11.65-5.43-1.39-7.68-4.98-8.22-9.95-.3-2.78-.06-5.67.35-8.45.63-4.27,1.9-8.52-4.32-9.85-.99-.21-1.81-1.84-2.44-2.97-1.78-3.19-3.44-6.45-5.12-9.7-3.51-6.75-9.16-9.59-15.88-7.48-10.38,3.26-12.98,7.1-11.95,15.12.66,5.12,2.72,10.28,5.14,14.9,8.53,16.27,10.68,32.96,4.9,50.58-1.64,5-3.38,10.15-3.71,15.33-.21,3.17,1.33,7.53,3.66,9.44,1.69,1.38,5.95-.4,9.07-.77Zm26.98-85.16c2.46-.98,4.26-1.23,5.39-2.23,5.45-4.82,10.82-9.75,16.04-14.81,4.57-4.43,3.58-11.69-1.88-15.01-16.95-10.28-32.13-22.85-46.91-35.97-.8-.71-1.93-1.66-2.82-1.57-6.8.65-9.41,6.52-5.94,12.67,2.76,4.9,5.12,10.03,7.92,14.9,7.03,12.19,14.06,24.39,21.45,36.36,1.49,2.42,4.55,3.87,6.75,5.65Z"/><path class="cls-1" d="m665.58,121.55c-10.96-.85-21.09-1.7-31.23-2.39-7.35-.5-8.05-1.16-6.7-8.49,1.38-7.47,3-14.89,4.64-22.97,2.68,1.88,5.4,3.74,8.08,5.69,7.4,5.38,15.66,9.94,21.9,16.44,5.93,6.18,13.19,11.96,14.81,21.61.55,3.29,3.14,6.47,5.44,9.16,3.12,3.64,7.27,4.8,12.17,3.54,5.56-1.44,11.23-2.43,18.41-3.94-3.38-4.59-5.76-8.97-9.2-12.24-8.95-8.5-17.9-16.96-23.3-28.27-3.81-7.98-4.4-16.39-.84-24.68,2.66-6.19,8.24-7.88,14.32-8.07,6.79-.21,13.6.03,20.4-.05,3.16-.04,3.88,2.5,2.29,3.71-7.27,5.56-11.23,13.26-14.74,21.87-1.4-1.18-2.15-2.27-3.11-2.51-2.16-.55-4.55-1.21-6.61-.76-.95.21-1.93,2.95-1.87,4.51.13,3.25.18,6.86,1.62,9.62,4.44,8.54,9.3,16.76,18.59,21.38,5,2.49,9.52,6.09,13.93,9.6,5.08,4.04,4.71,13.32-.5,17.24-.78.59-2.2.61-3.28.48-7.23-.85-14.44-1.89-21.67-2.68-2.63-.29-5.32-.05-8.95-.05,10.79,7.51,20.56,14.31,30.33,21.1.55.38,1.09.76,1.63,1.16q8.57,6.37,4.07,14c1.25,3.55,2.52,5.85,2.84,8.27,1.02,7.68-.7,15.01-4.87,21.39-7.83,11.96-5.48,24.12-1.52,36.4.96,2.99,2.7,5.71,3.79,8.67.62,1.69.64,3.59.96,5.58-1.09-.08-1.61.02-1.7-.14-6.97-11.96-17.18-22.15-19.67-36.54-1.78-10.31,2.35-19.28,6.3-28.25,1.47-3.33,3.54-6.38,5.39-9.66-13.94-8.24-19.39-24.15-31.02-34.53-1.21-1.08-2.07-2.56-3-3.75-11.42,7.98-13.44,16.53-7.66,30.79,1.31,3.22,2.9,6.36,4.59,9.4,2.1,3.78,1.25,6.81-2.21,8.94-5.92,3.65-12.01,7.05-18.02,10.56-1.56.91-3.35,1.61-4.62,2.83-4.4,4.22-8.68,8.75-6.35,15.58,2.87,8.42,8.25,14.27,17.53,15.79,2.7.44,6.79-.26,6.12,4.97-12.86.33-25.32.29-35.33-9.65-5.1-5.06-6.58-9.73-2.27-15.42,3.29-4.34,8-7.6,12.13-11.29.98-.88,2.35-1.38,3.2-2.35,6.67-7.63,13.35-15.26,19.78-23.09,1.03-1.25,1.44-3.67,1.07-5.3-1.6-6.97-3.32-13.93-5.51-20.73-3.86-11.99-3.52-24.06-1.59-36.25.26-1.61.53-3.22,1.03-6.2Z"/><path class="cls-1" d="m109.51,218.61c7.24-14.28,10.66-29.55,8.28-45.62-.73-4.95-4.43-9.41-5.45-14.37-2.01-9.72-2.64-19.73-4.68-29.44-1.95-9.26.45-15.04,9.37-19.25,7.68-3.63,14.44-9.19,22.01-14.16.41,1.18.9,1.86.75,2.29-2.65,7.26-2.92,15.6-10.78,20.34-7.64,4.62-13.22,11.36-14.88,20.35-.78,4.24-.92,9.04.28,13.1,2.28,7.7,5.23,15.05,10,21.98,9.17,13.3,9.83,28.67,5.68,43.94-2.56,9.42-6.63,18.42-9.82,27.68-1.67,4.85-2.91,9.84-4.75,16.16-2.78-6.5-5.12-11.81-7.33-17.18-4.59-11.15-12.47-19.79-20.66-28.35-2.85-2.98-4.56-7.21-6.24-11.11-3.44-7.99-4.34-16.31-2.41-24.92.91-4.05,1.52-8.18,2-12.3.79-6.69-.01-8.37-5.7-13.03-7.93,4.95-12.68,12.26-15.27,21.14-2.92,10.04-6.32,19.98-8.46,30.19-1.63,7.75-2.17,15.84-2.22,23.78-.11,16.8.56,33.61.6,50.42.01,5.88-.88,11.77-1.45,18.84-7.71-6.24-11.27-12.75-11.41-21.25-.24-15.61-.79-31.22-1.05-46.83-.22-13.52,2.73-26.3,8.28-38.7,2.6-5.81,3.71-12.37,4.88-18.71,1.3-7.02,1.77-14.18,2.86-21.24,1.15-7.41,5.13-11.15,12.53-12.08,3.95-.5,7.93-.97,11.9-1.08,5.71-.16,9.6,2.34,10.44,7.86,1.01,6.65,1.83,13.59,1.02,20.19-1.67,13.5,1.98,25.64,7.31,37.6.45,1,1.37,1.84,2.2,2.62,3.96,3.69,7.96,7.33,12.15,11.17Z"/><path class="cls-1" d="m857.08,67.55c2.26,8.88,4.52,17.76,7.07,27.79-7.85-3.25-10.18,2.39-13.02,5.98-12.49,15.81-14.42,34.35-13.96,53.77.23,9.85,6.12,14.5,13.14,18.74,3.37,2.03,3.84,3.73,3.35,7.87-.98,8.29-.72,16.87.17,25.21.81,7.55,3.3,14.91,4.73,22.41.78,4.08.91,8.29,1.33,12.44-.47.24-.94.48-1.4.72-2.09-1.42-4.18-2.83-6.93-4.7-8.09,4.32-16.58,8.85-25.1,13.4-6.94-7.97-14.11-16.26-21.36-24.48-1.98-2.24-3.84-4.9-6.36-6.29-6.45-3.57-7.54-9.16-8.04-15.83-1.13-14.95.36-29.59,3.95-44.05.87-3.49.41-6.25-1.99-8.68-6.39-6.47-12.66-13.08-19.39-19.18-2.7-2.45-3.24-4.21-1.9-7.59,2.25-5.69,3.72-11.69,5.69-17.51.6-1.77,1.73-3.37,2.73-5.26,6.98,6.91,12.73,13.77,16.2,22.49,3.18,7.99,3.98,15.99,2.99,24.44-.3,2.53.24,5.82,1.69,7.79,6.38,8.66,6.44,18.63,6.6,28.58.07,4.48-.83,9-.6,13.46.43,8.24,2.91,15.89,9.1,21.68,1.47,1.37,4.32,2.39,6.21,1.99,8.04-1.68,15.37-1.37,21.78,4.59,1.22,1.14,3.21,1.44,4.85,2.13.52-.23,1.04-.45,1.56-.68-1.55-7.53-2.65-15.18-4.74-22.56-4.7-16.58-7.82-33.67-15.92-49.18-3.38-6.47-6.07-13.3-9.32-19.84-3.3-6.65-2.22-12.23,1.95-18.41,10.97-16.24,21.27-32.93,31.85-49.44.43-.66.97-1.25,1.47-1.87l1.62.05Z"/><path class="cls-1" d="m554.79,85.6c1.6-1.48,3.11-4.66,6.68-1.86.49.38,2.47-1.39,3.87-1.86.78-.26,1.77.1,2.66.18-.14,1.04.12,2.51-.47,3.05-5.13,4.69-10.39,9.24-15.65,13.79-2.98,2.58-5.02.04-6.8-1.67-4.8-4.6-9.29-9.53-14.04-14.18-2.37-2.31-4.9-4.51-7.62-6.39-6.1-4.23-12.73-2.85-17.74,2.58-3.87,4.2-8.23,8.08-12.87,11.42-6.35,4.57-7.57,8.06-4.36,15.24,6.2,13.89,15.28,25.04,28.92,32.35,7.16,3.84,12.39,2.19,18.11-3.38,4.31,6.26,8.59,12.48,12.87,18.69.28.41.56.83.84,1.24,7.16,10.49,14.08,11.15,23.12,2.16,1.03-1.02,1.98-2.14,4.41-3.07,0,1.59.58,3.52-.11,4.71-1.99,3.41-4.22,6.77-6.85,9.69-4.33,4.81-9.25,9.08-13.54,13.92-2.33,2.63-3.4,2.43-4.98-.48-5.16-9.48-10.81-18.71-15.57-28.37-2.28-4.62-5.77-5.96-10.09-6.6-9.24-1.38-29.14,10.18-29.59,21.29-.14,3.31-.04,7.44,1.75,9.86,5.21,7.05,11,13.74,17.19,19.96,6.24,6.27,13.45,7,21.32,2.98,6.48-3.31,12.78-2.84,18.21,1.5,7.32,5.85,14.13,12.37,21.03,18.73.81.75,1.18,2.37,1.07,3.52-.04.49-1.83,1.2-2.82,1.18-6.88-.15-13.77-.37-20.63-.83-1.07-.07-2.08-1.4-3.09-2.19-5.08-4-10.17-7.99-15.22-12.03-2.81-2.25-5.2-1.69-7.92.43-4.85,3.77-9.9,7.28-14.98,10.73-2.28,1.55-4.84,2.69-8.32,4.58,0-3.38-.21-5.78.04-8.13,1.31-12.41-3.18-23.32-9.23-33.57-6.14-10.4-9.74-21.19-10.13-33.4-.37-11.75-2.69-23.44-3.13-35.2-.47-12.43.08-24.92.55-37.37.17-4.44,2.75-7.34,7.35-8.9,4.32-1.46,8.91-3.34,12.21-6.32,5.51-4.99,10.15-4.28,16.2-.4,4.58,2.94,8.45,6.98,12.85,10.24,4.92,3.64,9.92,7.24,15.22,10.26,2.37,1.35,5.58,1.22,9.28,1.93Z"/><path class="cls-1" d="m110.58,309.49c0-7.55.58-13.98-.14-20.27-1.01-8.82,4.77-14.05,10.88-15.76,12.04-3.37,15.08-12.71,18.93-22.21,4.05-10.01,7.99-20.09,12.64-29.82,5.04-10.53,11.58-20.12,20.31-28.12,1.23-1.13,1.55-4.26,1.02-6.09-1.23-4.29-3.55-8.26-4.84-12.54-2.6-8.56-1.63-17.04,1.26-25.43,3.3-9.58,1.32-15.71-8.06-19.47-10.71-4.29-13.88-14.73-20.5-22.33-.58-.66.21-2.52.48-4.81,15.01,9.09,30.38,16.16,34.51,35.04-5.2,7.43-4.52,20.24,2.12,25.49,6.59-6.14,11.9-13.31,15.32-21.65,3.12-7.62,1.61-15.49-2.56-22.01-10.31-16.12-1.95-28.17,11.5-35.6,5.49-3.03,11.17-.93,13.71,4.85,1.77,4.05,2.6,8.51,3.69,12.24-4.78,1.51-9.08,3.03-13.48,4.17-1.51.39-3.27-.26-4.92-.24-2,.02-4.3-.3-5.87.58-1.03.58-1.44,3.08-1.35,4.67.55,9.48,4.95,17.11,11.36,23.94,4.42,4.71,4.38,11.06-.57,15.31-10.11,8.69-17.01,19.51-22.21,31.5-1.74,4.01-2.6,8.59-2.91,12.98-.4,5.63-2.57,9.52-6.45,13.81-8.08,8.94-15.71,18.55-21.81,28.91-2.92,4.96-1.68,12.28-2.79,18.45-.83,4.65-1.97,9.34-3.74,13.7-2.18,5.37-5.12,10.43-7.84,15.57-.67,1.27-1.55,2.91-2.72,3.36-10.02,3.79-15.16,13.03-22.51,19.79-.34.31-.71.58-2.46,2.01Z"/><path class="cls-1" d="m271.55,93.91c14.94,8.98,19.24,21.41,17.25,35.95-1.11,8.08-4.41,15.86-6.64,23.79-.48,1.7-1.35,3.77-.81,5.21,5.01,13.28,1.19,26.17-1.1,39.23-2.15,12.3-4.15,24.78,2.57,36.49,1.37,2.38,3.15,4.52,5.3,7.56,9.65-11.59,21.67-16.89,35.62-15.75,6.02.49,12.5,3.01,17.46,6.49,4.56,3.2,9.76,7.65,7.82,15.31-.74-.95-1.56-1.85-2.21-2.85-3.63-5.53-8.89-7.28-15-4.36-3.87,1.85-7.25,4.72-11.11,6.58-2.13,1.02-4.93,1.58-7.2,1.15-4.2-.78-8.3-2.28-12.32-3.78-4.55-1.7-7.37.08-9.92,3.76-3.26,4.7-4.45,4.4-9.03,1.11-14.21-10.21-17.27-25.07-17.02-41.03.23-14.64,1.58-29.27,7.61-42.88,2.54-5.73,4.07-11.19,2.88-17.56-.46-2.46.78-5.64,2.15-7.96,4.51-7.7,2.25-13.88-3.4-19.73-2.47-2.56-6.5-5.44-6.5-8.17,0-5.9,2.16-11.81,3.62-18.56Z"/><path class="cls-1" d="m457.06,216.66c-4.63,5.21-9.22,10.42-13.85,15.58-3.74,4.17-6.8,3.97-8.55-1.47-1.47-4.58-2.05-9.78-1.59-14.57,1.48-15.55,3.54-31.05,5.53-46.56.86-6.71-2.37-11.57-6.75-15.84-5.22-5.09-11.61-8.15-18.89-8.61-1.78-.11-3.87,1.45-5.48,2.68-1.61,1.23-2.8,3.02-4.51,4.95-2.24-4.38-5.18-7.84-5.63-11.6-.54-4.53,1.27-9.3,1.61-13.99.25-3.4-.3-6.84-.37-10.27-.06-2.6-.77-6.98.26-7.47,3-1.42,7.16-2.52,10.1-1.51,11.22,3.83,19.46,11.65,23.95,22.57,3.64,8.83,5.96,18.2,9.04,27.27.9,2.65,2.05,5.35,3.7,7.57,7.86,10.55,6.21,21.15.5,31.81-1.64,3.07-4.13,5.76-5.37,8.95-1.23,3.16-1.38,6.75-2.26,11.52,3.63-1.26,5.61-1.92,7.57-2.62,5.38-1.91,10.7-4,16.14-5.71,4.82-1.52,18.83,5.33,22.04,8.96,3.68,4.15,8.65,7.16,13.32,10.87.04-.05-.36,1.12-1.1,1.39-5.04,1.88-10.12,3.63-15.25,5.22-.62.19-1.72-.74-2.44-1.35-3.54-3-6.96-6.13-10.54-9.07-3.44-2.82-7.02-5.47-11.19-8.71Z"/><path class="cls-1" d="m744.06,251.86c0-4.39.02-8.78,0-13.18-.1-19.96-.43-39.92-.23-59.87.14-13.95,1-27.88,1.51-41.83.19-5.24-1.17-9.8-5.5-13.24-8.03-6.39-16.02-12.84-23.86-19.45-1.05-.89-1.2-2.85-1.74-4.33-.04-.12.1-.31.16-.46,2.5-5.64,5-11.29,7.9-17.84,3.67,4.56,7.56,8.57,10.47,13.19,4.66,7.41,10.62,14.82,12.35,23,1.48,7,6.89,10.75,8.58,16.42,1.85,6.2,1.53,13.32.86,19.91-.71,7.05-3.17,13.9-4.45,20.91-3.1,16.99,2.03,31.79,11.25,46.07,7.03,10.88,17.87,9.88,27.99,11.48,3.33.52,4.84,1.55,6.07,4.58,2.55,6.3,5.69,12.35,8.38,18.59.54,1.25.15,2.9.19,4.36-1.47-.08-3.03.14-4.38-.29-5.47-1.74-10.91-3.58-16.28-5.62-1.35-.51-2.65-1.69-3.51-2.89-3.59-4.98-6.79-10.25-10.54-15.1-3.66-4.73-6.02-4.74-9.92-.32-3.62,4.11-6.91,8.5-10.36,12.76-.99,1.22-2,2.42-2.99,3.63-.65-.17-1.3-.34-1.95-.52Z"/><path class="cls-1" d="m362.86,241.79c-.54-3.11-1.57-6.24-1.52-9.34.14-10.95-3.25-20.67-7.94-30.48-2.88-6.03-3.86-13.43-3.93-20.23-.09-8.21,1.09-16.55,2.77-24.62,3.24-15.56,2.81-30.03-8.82-42.4-.69-.73-.88-2.86-.33-3.67,2.32-3.4,5.01-6.54,7.66-9.89,9.86,3.98,15.96,11.55,18.12,21.52.98,4.54-.46,9.96-1.96,14.61-1.77,5.47-4.12,11.01-7.41,15.68-6.8,9.66-6.87,20.27-5.56,31.1.29,2.39,2.65,5.12,4.81,6.59,8.42,5.73,13.4,13.77,16.35,23.17,1.21,3.86,2.37,4.75,6.24,2.67,4.63-2.48,9.76-4.05,14.71-5.92,3.47-1.32,5.82-.47,7.63,3.17,1.67,3.37,4.13,6.4,6.56,9.32,1.1,1.32,2.87,2.19,4.49,2.92,5.19,2.33,10.45,4.49,15.68,6.72-.01.44-.03.88-.04,1.32-1.75.32-3.5.69-5.26.94-6.35.88-12.78,1.35-19.03,2.7-4.96,1.06-8.34.4-11.6-3.96-2.58-3.45-6.32-6.35-10.11-8.49-5.39-3.05-8.21-2.05-11.79,3.2-2.94,4.33-5.54,8.9-8.28,13.37-.47,0-.93,0-1.4.01Z"/><path class="cls-1" d="m321.87,94.67c4.21.55,4.41,3.51,4.99,6.54,1.47,7.8,4.3,15.51,4.58,23.33.27,7.61-1.12,15.55-3.29,22.9-4.52,15.31-10.28,30.36-10.11,46.55.07,7.02,2.21,14.02,3.39,21.04.18,1.07.19,2.17.28,3.25-1.2.08-2.45.43-3.58.19-7.68-1.65-9.84-4.51-10.52-12.4-.38-4.42-1.43-8.8-2.33-13.16-1.04-5.02-3.21-10.03-3.1-15,.08-3.93,2.28-8.19,4.57-11.62,5.61-8.43,12.63-15.99,17.55-24.77,5.52-9.85,5.69-16.53-2.35-25.52-5.95-6.65-5.16-14.2-.06-21.34Z"/><path class="cls-1" d="m302.02,65.22c11.83-8.55,29.4-6.44,38.16,3.89,4.19,4.95,4.05,7.23-1.7,10.42-4.53,2.51-9.58,4.07-14.31,6.24-2.04.93-3.87,2.32-5.84,3.53-5.38-7.94-10.75-15.89-16.3-24.08Z"/><path class="cls-2" d="m901.16,261.94c-3.11.37-7.38,2.15-9.07.77-2.33-1.9-3.87-6.26-3.66-9.44.33-5.17,2.07-10.33,3.71-15.33,5.78-17.62,3.63-34.3-4.9-50.58-2.42-4.62-4.48-9.79-5.14-14.9-1.04-8.01,1.57-11.86,11.95-15.12,6.71-2.11,12.37.73,15.88,7.48,1.69,3.24,3.34,6.51,5.12,9.7.63,1.12,1.45,2.75,2.44,2.97,6.22,1.33,4.95,5.57,4.32,9.85-.41,2.78-.65,5.67-.35,8.45.54,4.98,2.79,8.57,8.22,9.95,6.27,1.6,12.3,4.41,13.46,11.65,1.4,8.68,2.74,17.61-5.45,24.37-4.48,3.7-8.37,8.19-13.12,11.47-3.88,2.68-8.62,4.11-12.99,6.06-1.95.87-3.9,1.88-5.95,2.36-1.41.33-3.01-.15-4.53-.27.02.18.05.37.07.55Z"/><path class="cls-2" d="m928.13,176.78c-2.2-1.79-5.26-3.24-6.75-5.65-7.39-11.97-14.42-24.17-21.45-36.36-2.81-4.87-5.16-10.01-7.92-14.9-3.47-6.16-.86-12.03,5.94-12.67.89-.08,2.02.86,2.82,1.57,14.78,13.12,29.96,25.69,46.91,35.97,5.47,3.32,6.46,10.58,1.88,15.01-5.22,5.07-10.59,10-16.04,14.81-1.13,1-2.93,1.25-5.39,2.23Z"/></svg>