<?xml version="1.0" encoding="UTF-8"?><svg id="Layer_1" xmlns="http://www.w3.org/2000/svg" viewBox="0 0 986.15 264.95"><defs><style>.cls-1{stroke-width:0px;}</style></defs><path class="cls-1" d="m920.84,95.05c.38-.8,1.23-2.6,3.14-3.66,1.82-1.01,3.67-.86,4.74-.74,5.06.57,16.49,3.28,25.46,8.7,1.05.64,3.11,1.94,6.16,3.36,1.91.89,2.43,1,3.73,1.68.85.44,3.11,1.69,5.93,4.39,7.24,6.96,8.74,14.52,13.86,20.06.36.39,1.31,1.39,1.87,2.99.85,2.45.21,4.71-.19,6.16-2.83,10.28-2.61,12.47-5.23,18.11-.36.77-1.21,2.55-2.61,4.67-1.07,1.61-1.87,2.74-3.21,3.92-1.54,1.36-3.16,2.05-4.27,2.42-1.36,6.74-.45,13.18,4.27,18.3,11.21,12.14,12.55,24.47,11.15,26.3-.03.05-.62.8-1.47,1.76-.62.7-1.05,1.13-1.27,1.37-1.31,1.39-2.06,2.89-2.44,3.58-1.03,1.89-3.36,4.23-7.33,9.45-2.68,3.53-4.42,5.47-6.89,7.26-1.79,1.3-3.29,2.03-4.98,2.83-10.2,4.83-15.31,7.21-19.89,7.99-2.45.42-6.11.81-10.7.4-3.13-.36-5.62-1.24-7.53-2.17-13.65-6.65-15.61-24.95-15.82-27.26h0s-4.35-28.38,5.82-54.04c1.37-3.45,2.7-6.11,3.41-7.47,1.32-2.29,2.98-5.47,4.55-9.42,1.95-4.91,4.07-10.26,4.38-16.57.44-9.05-3.29-11.32-4.43-24.3-.38-4.35-.3-7.89-.2-10.06Zm18.81,142.72c-.02-.16-.04-.33-.06-.49,1.36.11,2.79.54,4.06.24,1.84-.43,3.58-1.33,5.33-2.11,3.88-1.73,4.13-1.2,8.88-3.8,1.7-.93,2.9-1.75,3.71-2.3,3.27-2.23,7.77-5.3,10.79-9.59,3.89-5.54,6.11-14.24,3.25-21.57-1.59-4.07-4.65-7.48-5.56-8.45-2.02-2.16-2.99-2.49-4.27-3.62-.74-.65-1.19-1.22-1.52-1.61-2.24-2.66-4.66-5.16-6.88-7.84-7.79-9.38-12.4-12.54-15.64-16.78-.44-.57-2.03-2.5-4.59-4.35-.28-.2-.59-.39-.98-.6-1.5-.8-3.99-2.13-6.67-1.24-2.41.8-3.7,2.98-3.83,3.21-.25.44-.46,1.04-.87,2.22-.74,2.17-1.18,3.86-1.24,4.08-1.18,4.6-.88,5.32-1.79,7.89-.37,1.03-.93,2.37-1.83,3.87-6.77,11.9-7.15,20.13-6.72,24.65.11,1.2.55,4.2,1.43,10.19,1.54,10.56,1.74,11.33,2.24,12.43,2.26,4.98,6.08,7.94,10.21,11.14,2.2,1.7,3.79,2.6,5.52,3.25,2.85,1.07,5.4,1.21,7.03,1.17Zm24.16-76.27c1.21-.34,2.93-.93,4.83-2,.82-.46,8.85-5.12,10.74-13.49.23-1.04,1-3.66.93-7.09,0,0-.06-3.01-.92-6.09-3.21-11.45-35.13-34.8-40.51-30.68-.29.22-1.19,1.05-2.61,1.31-2.63.47-4.01-1.57-5.17-1.19-2.01.66-2.07,8.17.32,20.23,1.91,9.65,2.95,14.46,5.79,19.79,2.45,4.61,8.26,15.52,19.64,18.49,2.86.75,5.35.8,6.98.73Z"/><path class="cls-1" d="m691.97,54.4c-5.35-6.21-9.33-11.8-12.15-16.09-3.5-5.33-5.19-8.62-5.93-12.89-.62-3.55-.4-6.59-.11-8.64.75-.66,2.28-1.8,4.38-2.01,2.57-.26,4.56,1.02,5.38,1.55,5.7,3.65,10.35,16.81,13.18,24.51,9.98,27.15,7.91,15.36,10.36,23.75.65,2.24,1.8,6.52,5.04,7.75,1.28.49,1.55.18,9.26-.82,4.64-.6,5.52-.57,7.41-1.3,1.72-.66,3.83-1.48,5.57-3.5,2.44-2.83,2.77-6.43,3.14-9.84.18-1.66.14-2.91.13-3.21-.15-4.77-1.94-7.34-4.08-12.56-.3-.74-2.35-5.81-3.55-11.89.8-3.76.78-6.8.58-8.97-.24-2.7-.81-4.59.29-5.6,1.04-.95,3.02-.63,4.27,0,2.03,1.03,2.76,3.19,3.22,4.64.92,2.88.31,4.32.24,12.46-.01,1.46-.02,2.19,0,2.52.31,5.25,2.57,9.24,3.64,11.4,1.12,2.27,3.15,5.31,3.27,8.23.06,1.36-.15,2.06-1.06,5.89-2.21,9.32-1.91,8.98-2.39,9.94-.41.82-3.09,5.53-9.13,7.93-1.25.5-3.24,1.13-5.84,1.31,0,0,11.5,19.42,16.89,25.76.24.28,3.34,3.92,3.34,3.92,3.5,2.9,4.58,3.39,6.16,5.1,1.18,1.27,2.72,3.3,3.93,6.42.75.76,1.72,1.95,2.37,3.62.98,2.56.46,5.39-1.05,10.84-1.01,3.65-2.7,7.08-5,10.23-8.41,11.49-6.81,23.76-3.63,36.25.37,1.46,3.22,8.87,3.22,8.87h0c-.82.53-2.06,1.13-3.43.93-3.65-.52-5.48-6.25-7.99-13.63-6.63-19.48-6.65-17.61-6.86-19.53-1.12-10.07,6.43-13.57,7.86-27.84.38-3.82.26-7.02.1-9.15-6.8-12.09-14.35-24.27-22.76-36.44-.91-1.32-1.82-2.62-2.74-3.92-5.33,3.32-8.75,6.89-10.45,11.16-.95,2.41-.12,3.07,1.1,19.14,0,0,.31,4.03,0,9.85-.2,3.78-.48,4.6-.65,5.06-.71,1.8-1.72,2.62-7.96,7.18-5.67,4.13-6.84,4.91-8.48,5.86-3.27,1.91-3.17,1.23-4.72,2.56-2.87,2.48-7.48,10.36-7.48,10.36-2.32,3.92-2.15,3.54-3.08,5.19-1.52,2.72-2.72,5.13-3.65,7.07-.37.48-2.63,3.35-5.12,2.99-3.05-.46-4.37-5.5-4.21-9.11.09-2.08,1.01-4.19,2.88-6.41,3.49-4.14,8.32-7.12,12.61-10.57,1.34-1.07,1.6-1.05,3.29-2.16,10.76-7.1,16.18-10.73,17.73-14.66,1.37-3.47-.36-4.2-1-13.03-.71-9.73,1.29-10.06,1.27-20.46-.03-11.7-3.47-23.95-3.95-25.59-.76-2.57-1.94-6.18-3.71-10.41Z"/><path class="cls-1" d="m73.6,184.47c7.24-14.28,10.66-29.55,8.28-45.62-.73-4.95-4.43-9.41-5.45-14.37-2.01-9.72-2.64-19.73-4.68-29.44-1.95-9.26.45-15.04,9.37-19.25,7.68-3.63,14.44-9.19,22.01-14.16.41,1.18.9,1.86.75,2.29-2.65,7.26-2.92,15.6-10.78,20.34-7.64,4.62-13.22,11.36-14.88,20.35-.78,4.24-.92,9.04.28,13.1,2.28,7.7,5.23,15.05,10,21.98,9.17,13.3,9.83,28.67,5.68,43.94-2.56,9.42-6.63,18.42-9.82,27.68-1.67,4.85-2.91,9.84-4.75,16.16-2.78-6.5-5.12-11.81-7.33-17.18-4.59-11.15-12.47-19.79-20.66-28.35-2.85-2.98-4.56-7.21-6.24-11.11-3.44-7.99-4.34-16.31-2.41-24.92.91-4.05,1.52-8.18,2-12.3.79-6.69,0-8.37-5.7-13.03-7.93,4.95-12.68,12.26-15.27,21.14-2.92,10.04-6.32,19.98-8.46,30.19-1.63,7.75-2.17,15.84-2.22,23.78-.11,16.8.56,33.61.6,50.42,0,5.88-.88,11.77-1.45,18.84-7.71-6.24-11.27-12.75-11.41-21.25-.24-15.61-.79-31.22-1.05-46.83-.22-13.52,2.73-26.3,8.28-38.7,2.6-5.81,3.71-12.37,4.88-18.71,1.3-7.02,1.77-14.18,2.86-21.24,1.15-7.41,5.13-11.15,12.53-12.08,3.95-.5,7.93-.97,11.9-1.08,5.71-.16,9.6,2.34,10.44,7.86,1.01,6.65,1.83,13.59,1.02,20.19-1.67,13.5,1.98,25.64,7.31,37.6.45,1,1.37,1.84,2.2,2.62,3.96,3.69,7.96,7.33,12.15,11.17l.02-.03h0Z"/><path class="cls-1" d="m899.69,73.9c3.55,1.2,8.03,3.39,9.48,7.48,2.04,5.76-4.04,9.46-9.2,22.02-5.23,12.74-5.43,24.67-5.56,32.08-.05,3.13.13,5.28.49,9.59.81,9.88,1.93,11.68,3.01,12.82,1.03,1.09,2.15,1.68,2.73,3.37.5,1.42.3,3.05-.32,5.42-.62,2.41-1.71,10.45-3.43,26.66-.46,4.32-.76,7.23-.82,11.35-.07,5.47.33,10.01.73,13.2.11.68.22,1.41.29,2.17.14,1.44.17,2.78.14,3.99-.03.15-.51,2.26-2.48,3-1.61.61-3.53.05-4.67-1.41-3.2-.76-6.6-1.7-10.18-2.87-4.3-1.4-8.22-2.93-11.75-4.48-6.31-2.19-11.24-4.82-14.71-6.93-7.98-4.88-11.07-8.83-11.84-9.84-.94-1.24-2.28-3.02-3.36-5.6-2.36-5.61-1.79-10.87-1.48-13.37,1.18-9.72,5.6-39.82,4.24-46.7-.39-2.02-1.08-3.92-1.08-3.92-.61-1.71-1.29-3.07-1.83-4.03-.37-.67-.65-1.12-.74-1.26-1.69-2.77-.25-8.04-.23-11.81.01-1.78-.49-1.86-.43-3.16,0,0,.06-1.45,1.63-5.62,0,0-.5-3.26-.77-5.35-.52-4.01-.82-6.31-.6-9.17.15-1.89.46-3.19,1.07-5.7,1.2-4.88,2.57-8.56,3.17-10.13,3.35-8.77,7.95-18.03,9.31-20.73,4.86,2.38,6.84,5.2,7.76,7.3,3.58,8.22-4.7,15.67-8.12,35.89-.3,1.77-1.59,4.04-1.24,8.66.44,5.93-.19,11.78-1.72,17.74-.68,2.63-.58,6.18.67,8.47,5.5,10.07,4.13,20.61,2.88,31.15-.57,4.74-2.17,9.39-2.56,14.14-.73,8.77.8,17.21,6.51,24.21,1.36,1.66,4.22,3.14,6.28,2.99,8.74-.62,16.44.76,22.36,7.97,1.13,1.38,3.19,1.98,4.82,2.95.58-.17,1.16-.33,1.75-.49-.67-10.37-1.32-18.82-1.78-24.52-2.79-34.7-4.19-52.04-4.58-53.25-1.56-4.83-4.86-13.56-1.23-21.6,1-2.2,1.83-2.85,4.15-7.18,2.99-5.58,6.12-14.45,6.12-14.45,2.11-6.18,4.49-13.12,7.16-21.05Z"/><path class="cls-1" d="m607.51,21.2c1.58-1.28,3.27-4.2,6.12-1.14.39.42,2.34-1.1,3.63-1.41.72-.18,1.56.27,2.33.44-.24.99-.16,2.45-.75,2.91-5.05,4.03-10.22,7.91-15.37,11.8-.89.67-1.65.89-2.32.82-1.67-.18-2.19-2.02-3.52-3.12-2.25-1.84-4.29.54-8.19.48-2.99-.05-5.12-1.59-9.39-4.66-4.52-3.25-4.41-4.6-7.8-6.28-2.31-1.14-4.3-1.37-8.3-1.84-5.87-.68-8.82-1.02-11.9.7-1.17.66-4.39,2.46-6,6.34-2.2,5.28.67,9.46,2.27,19.8,2.17,14.07-1.21,18.88,1.97,22.01,3.95,3.89,9.28-3.51,18.32.43,2.87,1.25,4.28,2.89,7.48,2.8,2.94-.08,5.81-1.6,8.94-4.27,3.13,6.49,6.25,12.95,9.36,19.4.18.37.34.76.61,1.29,2.82,5.36,9.21,10.64,15.47,9.99,2.41-.26,3.79-1.29,4.4-.58,1.04,1.22-1.67,5.94-3.13,5.71-.14-.02-.29-.09-.46-.18-.91-.46-5.24-1.5-6.81-1.16-2.95.65-5.46-.17-7.82-.94-7.06-2.31-11.92-10.85-13.46-15.59-.23-.7-.66-2.04-1.75-3.49-1.62-2.15-3.85-3.17-6.47-3.9-8.03-2.27-26.93,6.95-28.54,17.68-.49,3.19-.85,7.21.47,9.73,4.87,9.32,10.47,11.18,13.05,21.06,1.53,5.85-.56,7.44,1.83,10.81,2.32,3.28,5.55,3.5,15.99,6.73,10.59,3.28,8.41,3.4,14.08,4.81,10.02,2.48,16.98,2.12,19.22,6.2.25.45.82,2.18.57,3.52-.09.47-1.76.98-2.62.86-6.08-.83-29.35-7.27-33.92-7.69-3.66-.34-3.1-1.79-7.69-2.85-5.72-1.34-10.62,0-12.75.6-1.98.56-4.81,1.6-7.88,3.61.37-3.28.44-5.63.93-7.88,2.51-11.9-.27-22.92-4.5-33.45-4.3-10.69-6.31-21.51-5.33-33.37.79-9.41-.08-17.69,1.08-34.42,1.62-23.5,3.43-27.43,5.83-30.11,4.55-5.06,11.03-5.49,15.55-5.8,6.56-.44,11.73,1.59,13.9,2.47,7.14,2.88,11.7,6.27,11.7,6.27,3.12,2.32,4.99,4.32,8.05,4.06,2.33-.2,3.13-1.53,5.56-1.92,3.26-.54,6.06,1.15,8.01,2.78l-.04-.02Z"/><path class="cls-1" d="m110.58,220.02c-.4-6.67,8.76-12.55,11-18.39,3.78-9.88,7.43-19.82,11.89-29.47,4.84-10.44,11.41-20.07,20.53-28.31,2.41-2.19.7-5.92.7-5.92.02-5.3-1.58-9.11-2.45-11.41-.98-2.6-.32,0-4.25-24.89-.64-4.1-1.09-7.02-3.2-10.56-2.27-3.79-5.09-6.02-7.14-7.67-12.07-9.77-22.29-17.89-20.18-22.2.52-1.08,1.96-2.54,6.44-3.34,4.29,3.07,9.34,7.22,14.26,12.69,6.31,7,10.24,13.78,12.72,19-.37,3.63-.42,8.39.64,13.82,1.46,7.42,4.44,13.21,6.84,17.02,14.1-12.46,15.42-23.58,15.57-27.67.3-8.4-2.2-18.4-4.41-21.01-12.6-14.86-4.18-26.98,10.21-34.96,2.7-1.49,5.54-1.96,8.11-1.48,4.63.85,6.98,4.56,7.45,5.29,2.52,4,1.38,7.98,1.08,8.93-4.46.69-8.05,1.54-10.63,2.24-2.6.69-4.18,1.24-5.79,1.96-2.61,1.16-4.92,2.2-6.29,4.28-.97,1.46-1.2,3-1.17,4.58.2,9.11,9.13,14.92,9.6,25.48.1,2.35-.23,4.37-.51,5.94-1,5.88-3.22,10.04-4.53,12.49-7.63,14.33-11.44,21.57-12.17,24.87-2,9.21-2.3,12.67-2.3,12.67-.01,1.96-.3,3.71-.85,5.36-1.47,4.42-4.3,7.29-5.33,8.33-7.11,7.25-14.91,21.16-18.66,30.29-2.81,6.86-4.58,14.05-5.25,16.8-1.18,4.81-1.21,6.81-1.92,9.59-.44,1.73-.95,3.02-1.25,3.82-.27.71-.95,2.51-2.49,5.65-1.7,3.47-16.19-2.33-16.27-3.76v-.03Z"/><path class="cls-1" d="m263.59,23.07c15.75,7.25,21.23,18.92,20.67,33.27-.31,7.97-2.83,15.88-4.29,23.82-.32,1.7-.97,3.81-.29,5.15,6.28,12.42,3.74,25.35,2.74,38.29-.94,12.19-1.71,24.53,6.12,35.25,1.6,2.18,3.58,4.09,6.01,6.82,8.47-12.25,19.91-18.6,33.91-18.89,6.04-.13,12.73,1.68,18.01,4.57,4.85,2.66,10.45,6.47,9.27,14.12-.83-.85-1.73-1.65-2.48-2.56-4.15-5.02-9.56-6.2-15.35-2.75-3.67,2.19-6.75,5.32-10.42,7.52-2.02,1.2-4.75,2.03-7.05,1.84-4.25-.34-8.48-1.39-12.63-2.45-4.69-1.2-7.32.81-9.5,4.65-2.78,4.89-4,4.73-8.88,1.98-15.14-8.52-19.63-22.67-20.94-38.23-1.21-14.27-1.28-28.65,3.38-42.49,1.97-5.83,2.95-11.3,1.15-17.38-.7-2.35.22-5.57,1.36-7.96,3.73-7.94.88-13.74-5.31-18.87-2.71-2.25-6.99-4.65-7.26-7.3-.58-5.75.99-11.71,1.79-18.42h-.02s.01.01.01.01Z"/><path class="cls-1" d="m496.73,130.22c-4.97,5.09-9.9,10.18-14.87,15.22-4.01,4.07-7.05,3.66-8.43-2.07-1.16-4.84-1.39-10.25-.61-15.17,2.52-15.99,5.62-31.88,8.65-47.8.35-1.83.4-3.54.22-5.16-.54-4.62-3.37-5.96-5.88-11.67-1.09-2.49-.57-2.18-2.21-7.07-1.44-4.31-2.85-7.5-4.55-11.25-6.38-14.05-6.82-13.61-7.96-16.94-1.58-4.65-2.84-11.66-.86-21.57,3.56-4.04,5.93-4.53,7.45-4.2,3.23.69,4.92,5.58,10.73,37.06,3.4,18.42,4.05,23.35,7.19,28.79.67,1.15,2.37,3.94,3.18,8.07.52,2.64.58,5.36-.7,12.68-.48,2.8-1.14,6.11-4.22,18.5-.22.87-1.18,4.73-2.69,10.66-1.24,4.88-2.29,8.93-3.03,11.77,3.71-1.07,5.73-1.62,7.73-2.22,5.5-1.63,10.95-3.45,16.49-4.86,4.91-1.26,18.43,6.73,21.39,10.7,3.39,4.53,8.15,7.97,12.56,12.11.04-.05-.43,1.13-1.19,1.37-5.16,1.62-10.34,3.09-15.57,4.41-.63.16-1.67-.88-2.34-1.56-4.54-4.53-8.04-7.8-9.91-10.06-2.16-2.64-5.51-6.16-10.57-9.73h0Z"/><path class="cls-1" d="m775.32,184.34c-.26-1.36-.62-3.39-.91-5.86-1.44-12.28,3.95-22.98,10.97-56.66,2.74-13.16,6.17-26.18,9.26-39.28,1.16-4.92.71-9.49-2.79-13.54-6.5-7.54-12.96-15.12-19.24-22.84-.84-1.03-.62-2.92-.86-4.42-.02-.12.15-.28.24-.41,3.45-4.87,6.9-9.74,10.9-15.4,2.66,5,5.65,9.51,7.57,14.42,3.08,7.88,7.41,15.99,7.54,24.05.11,6.89,4.59,11.45,5.16,17.13.38,3.82,0,7.7-2.9,18.99-2.73,10.69-5.31,18.33-6.09,20.72-.97,3.01-13.91,44.11.62,55.46,2.94,2.29,8.71,4.72,17.34,10.26,1.17.76,3.6,2.33,5.98,5.1,1.91,2.22,1.55,2.59,3.56,5.22,3.66,4.79,6.27,5.41,6.8,8.52.27,1.58-.13,3.03-.63,4.16-1.39-.35-2.93-.43-4.15-1.09-4.91-2.67-9.79-5.42-14.56-8.35-1.92-1.18-1.4-2.17-2.83-3.38-2.84-2.42-4.34-1.55-7.44-3.69-3.04-2.1-2.6-3.62-5.75-5.26-.29-.15-1.76-.6-4.69-1.5-4.25-1.3-5.4-1.59-6.85-1.73-1.71-.17-3.12-.08-4,.01l-2.27-.64h0Z"/><path class="cls-1" d="m403.73,161.4c-.54-3.57-1.57-7.16-1.52-10.72.14-12.57-3.25-23.73-7.94-34.99-2.88-6.92-3.86-15.42-3.93-23.22-.09-9.42,1.09-19,2.77-28.26.52-2.85,1.47-23.97-1.48-36.1-.79-3.25-1.25-5.92-2.16-11.25-.93-5.44-.94-6.4-.75-7.35,1.08-5.64,8.17-8.42,11.67-9.51.74,6.03,1.85,12.91,3.57,20.41,2.58,11.25,4.4,14.67,3.82,21.03-.77,8.45-4.47,7.52-7.41,18-1.79,6.37-1.56,15.85-1.11,34.81.12,5.08.18,7.63.36,8.46,2.71,12.91,13.79,17.23,16.35,26.6.62,2.28,1.23,3.66,2.21,4.13,1.3.63,2.61-.33,4.03-1.07,4.73-2.45,10.48-2.39,14.34-.51,2.03.99,3.66,2.54,4.14,3.03,2.72,2.7,2.61,4.38,4.52,5.19,2.16.91,3.23-.83,5.9-.16,2.35.59,3.76,2.49,4.49,3.35,2.12,2.5,6.36,5.52,15.68,7.71-.01.51-.03,1.01-.04,1.52-1.75.37-3.5.79-5.26,1.08-6.35,1.01-12.78,1.55-19.03,3.1-2.73.67-4.98.74-6.99-.16-2.47-1.11-2.16-2.68-4.61-4.38-3.46-2.4-4.89-.03-11.23-2.11-2.42-.8-3.55-1.58-5.65-1.3-1.96.27-3.39,1.28-4.52,2.16-4.3,3.36-7.97,7.65-10.22,10.52h0Z"/><path class="cls-1" d="m359.95,24.94c4.24.16,4.72,3.09,5.57,6.05,2.19,7.63,5.72,15.04,6.72,22.81.97,7.55.33,15.59-1.15,23.11-3.08,15.66-7.42,31.18-5.75,47.29.72,6.98,3.5,13.75,5.32,20.64.28,1.05.39,2.14.58,3.21-1.19.19-2.4.66-3.55.52-7.8-.93-10.22-3.58-11.62-11.37-.79-4.37-2.24-8.63-3.54-12.89-1.5-4.9-4.13-9.69-4.48-14.65-.28-3.92,1.51-8.37,3.47-11.99,4.8-8.91,11.09-17.09,15.18-26.29,4.58-10.32,4.13-16.99-4.7-25.19-6.54-6.07-6.45-13.66-2.04-21.24h-.02.01Z"/><path class="cls-1" d="m341.49,14.59c2.41.86,4.39,1.7,5.89,2.38,2.56,1.17,3.51,1.78,3.78,2.8.11.42.17,1.16-.72,2.73-2.43,4.27-7.23,6.03-9.3,7.06-1.2.6-2.28.87-3.02,1-.76-.42-5.83-3.34-6.87-9.25-.52-3,.22-5.47.7-6.73.6.17,1.51.32,2.24-.14.92-.57,3.51-2.51,7.29.14Z"/></svg>