<?xml version="1.0" encoding="utf-8"?>
<!-- Generator: Adobe Illustrator 27.9.0, SVG Export Plug-In . SVG Version: 6.00 Build 0)  -->
<svg version="1.1" id="Layer_1" xmlns="http://www.w3.org/2000/svg" xmlns:xlink="http://www.w3.org/1999/xlink" x="0px" y="0px"
	 viewBox="0 0 32 32" style="enable-background:new 0 0 32 32;" xml:space="preserve">
<path d="M18,10c0,3.3-2.7,6-6,6s-6-2.7-6-6s2.7-6,6-6S18,6.7,18,10 M0,26c0,2,2,2,2,2h20c0,0,2,0,2-2s-2-8-12-8S0,24,0,26 M27,9.8
	c2.8-2.8,9.7,2.1,0,8.6C17.3,12,24.2,7,27,9.8L27,9.8z"/>
</svg>
