<?xml version="1.0" encoding="utf-8"?>
<!-- Generator: Adobe Illustrator 27.9.0, SVG Export Plug-In . SVG Version: 6.00 Build 0)  -->
<svg version="1.1" id="Layer_1" xmlns="http://www.w3.org/2000/svg" xmlns:xlink="http://www.w3.org/1999/xlink" x="0px" y="0px"
	 viewBox="0 0 32 32" style="enable-background:new 0 0 32 32;" xml:space="preserve">
<style type="text/css">
	.st0{fill:#EA47A4;}
</style>
<path d="M24.5,5.5c-1.1,0-1.9,0.9-1.9,1.9s0.9,1.9,1.9,1.9l0,0c1.1,0,1.9-0.9,1.9-1.9S25.6,5.5,24.5,5.5z"/>
<rect y="14.5" class="st0" width="2" height="1.5"/>
<g>
	<path d="M16,2c4.3,0,4.8,0,6.5,0.1c1.3,0.1,2.3,0.2,3.3,0.6c0.8,0.3,1.5,0.8,2.1,1.4l0,0l0,0c0.6,0.6,1.1,1.3,1.4,2.1
		c0.2,0.6,0.5,1.6,0.6,3.3c0.1,1.2,0.1,1.9,0.1,3.9v5.3c0,2,0,2.6-0.1,3.9c-0.1,1.7-0.4,2.6-0.6,3.2c-0.3,0.9-0.8,1.5-1.4,2.2
		c-0.6,0.6-1.3,1.1-2.1,1.4c-0.9,0.4-1.9,0.5-3.2,0.6l-0.4,0c-0.7,0-1.3,0.1-2.2,0.1l-7.3,0c-1.4,0-2,0-3.1-0.1l-0.1,0
		c-1.7-0.1-2.6-0.4-3.2-0.6c-0.9-0.3-1.5-0.8-2.1-1.4c-0.6-0.6-1.1-1.3-1.4-2.1c-0.4-0.9-0.5-1.9-0.6-3.2C2,20.8,2,20.3,2,16
		c0-4.3,0-4.8,0.1-6.5c0.1-1.7,0.4-2.6,0.6-3.3C3,5.4,3.5,4.7,4.1,4.1C4.7,3.5,5.4,3,6.3,2.7c0.9-0.4,1.9-0.5,3.3-0.6
		C11.2,2,11.7,2,16,2 M16,0c-4.3,0-4.9,0-6.6,0.1C7.7,0.2,6.5,0.4,5.5,0.8c-1.1,0.4-2,1-2.8,1.8C1.9,3.5,1.2,4.5,0.8,5.5
		c-0.4,1-0.7,2.2-0.7,3.9C0,11.1,0,11.7,0,16c0,4.4,0,4.9,0.1,6.6c0.1,1.7,0.3,2.9,0.7,3.9c0.4,1,1,1.9,1.9,2.8
		c0.9,0.9,1.8,1.4,2.8,1.9c1,0.4,2.2,0.7,3.9,0.7c1.1,0,1.7,0.1,3.3,0.1h7.3c1.1,0,1.7,0,2.7-0.1c1.7-0.1,2.9-0.3,3.9-0.7
		c1.1-0.4,2-1,2.8-1.9c0.9-0.9,1.4-1.8,1.8-2.8c0.4-1,0.7-2.2,0.7-3.9c0.1-1.3,0.1-1.9,0.1-4v-5.3c0-2.1,0-2.7-0.1-4
		c-0.1-1.7-0.3-2.9-0.7-3.9c-0.4-1.1-1-2-1.8-2.8c-0.8-0.8-1.8-1.5-2.8-1.8c-1-0.4-2.2-0.7-3.9-0.7C20.9,0,20.3,0,16,0L16,0z"/>
</g>
<g>
	<path d="M16,9.8c3.4,0,6.2,2.8,6.2,6.2s-2.8,6.2-6.2,6.2S9.8,19.4,9.8,16S12.6,9.8,16,9.8 M16,7.8c-4.5,0-8.2,3.7-8.2,8.2
		s3.7,8.2,8.2,8.2s8.2-3.7,8.2-8.2S20.5,7.8,16,7.8L16,7.8z"/>
</g>
</svg>
